<svg width="66" height="66" viewBox="0 0 66 66" fill="none" xmlns="http://www.w3.org/2000/svg">
<mask id="mask0_481_26" style="mask-type:luminance" maskUnits="userSpaceOnUse" x="0" y="0" width="66" height="66">
<path d="M49.8448 65.8094L0 19.6991L16.0405 -3.31926e-05L65.8853 46.1103L49.8448 65.8094Z" fill="white"/>
</mask>
<g mask="url(#mask0_481_26)">
<path d="M52.0698 53.9046C52.3149 51.8218 52.4654 49.9817 52.6757 48.1962C53.2493 42.0183 52.0839 36.3212 48.7898 31.0744C46.3716 27.2978 43.1094 24.9397 38.8817 24.6581C34.6541 24.3765 30.3405 24.4552 26.1289 24.4084C23.9681 24.389 21.8744 24.5417 19.7646 24.4596C16.0369 24.2006 14.4407 22.7239 13.2938 18.9136C11.9294 14.352 12.5995 9.58306 15.3633 4.66135C13.2753 3.27965 11.9312 4.6757 11.1542 6.26642C10.1809 8.22543 9.33385 10.4113 9.03781 12.5569C8.70678 15.0001 8.72239 17.654 9.1627 20.0409C10.242 26.0983 13.4424 29.1689 19.1777 29.6355C22.5748 29.9187 25.9317 29.6148 29.3128 29.6632C32.4143 29.6729 35.575 29.7374 38.7437 29.9192C41.1331 30.04 42.9926 31.3203 44.5106 33.2746C46.8213 36.2921 47.9952 39.6877 48.2096 43.6248C48.2659 44.4468 48.2629 45.2139 48.2092 46.0439C48.0097 49.5988 47.8098 53.1533 47.5755 57.0054C44.6092 52.5016 41.8873 48.3341 39.1064 44.1121C39.0474 44.0571 38.6147 44.2069 38.2328 44.2939C38.2651 44.7634 38.0849 45.3665 38.2191 45.7107C40.1509 50.4671 41.98 55.3487 44.2852 59.9003C46.0772 63.428 48.3886 64.0263 51.4473 61.7969C54.1407 59.8896 56.4633 57.4192 58.6757 54.9566C59.2456 54.384 59.2353 52.615 58.8485 51.8171C58.6468 51.3006 56.9698 51.069 56.2145 51.3602C54.8062 51.8171 53.6583 52.8446 52.0698 53.9046Z" fill="#56612E"/>
</g>
</svg>
