<svg width="66" height="66" viewBox="0 0 66 66" fill="none" xmlns="http://www.w3.org/2000/svg">
<g clip-path="url(#clip0_481_18)">
<path d="M13.8397 54.0599C13.5943 51.9711 13.4431 50.1261 13.2327 48.3357C12.6577 42.14 13.8257 36.4265 17.1255 31.1641C19.5477 27.3768 22.8154 25.0123 27.0508 24.729C31.2851 24.4468 35.6067 24.5259 39.825 24.4789C41.9898 24.4597 44.0874 24.6125 46.2011 24.5302C49.9346 24.2704 51.5344 22.79 52.6824 18.9685C54.0498 14.3934 53.3786 9.61091 50.6098 4.67451C52.7015 3.28916 54.0478 4.68948 54.8262 6.28434C55.8019 8.24907 56.6493 10.4415 56.9469 12.5933C57.2784 15.0433 57.2624 17.705 56.8216 20.0994C55.7398 26.1742 52.5342 29.2528 46.7892 29.721C43.3862 30.0054 40.0234 29.7007 36.6365 29.7488C33.5291 29.7584 30.3625 29.8236 27.189 30.0054C24.7948 30.1272 22.9326 31.411 21.4119 33.3704C19.0969 36.3966 17.9209 39.8022 17.7065 43.7509C17.6494 44.5751 17.6524 45.3447 17.7065 46.1774C17.9068 49.7424 18.1062 53.3073 18.3416 57.1705C21.3128 52.6531 24.0395 48.4746 26.8254 44.2394C26.8845 44.1849 27.3182 44.3346 27.6999 44.4222C27.6678 44.8926 27.8482 45.4976 27.7139 45.8429C25.7796 50.6125 23.9464 55.5083 21.6373 60.0738C19.8422 63.6109 17.5272 64.2117 14.4628 61.9754C11.7651 60.0631 9.43807 57.5853 7.22221 55.1149C6.65122 54.542 6.66124 52.7675 7.04891 51.9669C7.25026 51.4495 8.93019 51.2165 9.68751 51.5083C11.098 51.9669 12.248 52.9973 13.8397 54.0599Z" fill="#56612E"/>
</g>
<defs>
<clipPath id="clip0_481_18">
<rect width="66" height="66" fill="white"/>
</clipPath>
</defs>
</svg>
