<svg width="619" height="189" viewBox="0 0 619 189" fill="none" xmlns="http://www.w3.org/2000/svg">
<path d="M57.6 71.904C57.84 80.208 58.512 85.392 59.616 87.456C60.432 88.992 60.384 90.144 59.472 90.912C58.608 91.68 56.856 92.064 54.216 92.064H37.8C36.072 92.064 34.488 91.488 33.048 90.336C31.608 89.136 30.432 87.672 29.52 85.944C28.656 84.216 27.816 82.392 27 80.472C26.184 78.552 25.488 76.8 24.912 75.216C24.336 73.584 23.712 72.36 23.04 71.544C22.368 70.68 21.672 70.44 20.952 70.824C20.616 71.016 20.376 71.304 20.232 71.688C20.136 72.024 20.136 72.48 20.232 73.056C20.328 73.584 20.448 74.112 20.592 74.64C20.736 75.168 20.952 75.816 21.24 76.584C21.576 77.304 21.864 77.928 22.104 78.456C22.344 78.936 22.656 79.56 23.04 80.328C23.424 81.096 23.688 81.648 23.832 81.984C26.232 87.168 27.456 90.24 27.504 91.2C27.504 91.776 27.288 92.064 26.856 92.064H6.624C3.984 92.064 2.208 91.68 1.296 90.912C0.432 90.144 0.408 88.992 1.224 87.456C1.704 86.544 2.112 84.792 2.448 82.2C2.784 79.608 3 77.256 3.096 75.144L3.24 71.904V61.248C3 52.944 2.328 47.76 1.224 45.696C0.408 44.16 0.432 43.008 1.296 42.24C2.208 41.472 3.984 41.088 6.624 41.088C13.152 40.992 17.52 40.992 19.728 41.088C20.592 41.136 21.312 41.208 21.888 41.304C22.512 41.4 23.256 41.664 24.12 42.096C25.032 42.48 25.776 43.032 26.352 43.752C26.928 44.424 27.456 45.456 27.936 46.848C28.464 48.24 28.824 49.872 29.016 51.744C29.304 54.768 30.144 57.984 31.536 61.392C32.976 64.752 34.488 67.368 36.072 69.24C37.656 71.064 38.784 71.592 39.456 70.824C39.696 70.536 39.816 70.32 39.816 70.176C39.864 69.984 39.768 69.768 39.528 69.528C39.336 69.288 39.096 69.048 38.808 68.808C38.52 68.52 38.136 68.112 37.656 67.584C37.224 67.056 36.816 66.48 36.432 65.856C34.656 62.928 33.456 59.544 32.832 55.704C32.208 51.816 32.4 48.432 33.408 45.552C34.416 42.672 36.192 41.232 38.736 41.232H38.808L54.216 41.088C56.856 41.088 58.608 41.472 59.472 42.24C60.384 43.008 60.432 44.16 59.616 45.696C59.136 46.608 58.728 48.36 58.392 50.952C58.056 53.544 57.84 55.896 57.744 58.008L57.6 61.248V71.904ZM88.9037 75.792C88.9517 76.512 88.9997 77.472 89.0477 78.672C89.1437 79.824 89.3597 81.552 89.6957 83.856C90.0797 86.112 90.5357 87.6 91.0637 88.32C92.5517 90.432 91.3757 91.656 87.5357 91.992C86.8637 92.04 86.1197 92.064 85.3037 92.064H71.1917C66.9197 92.064 64.7837 91.344 64.7837 89.904C64.7837 89.424 64.9997 88.896 65.4317 88.32C65.9597 87.6 66.3917 86.184 66.7277 84.072C67.0637 81.96 67.2797 80.064 67.3757 78.384L67.5197 75.792V67.152C67.5197 66.384 67.4717 65.424 67.3757 64.272C67.3277 63.12 67.1117 61.416 66.7277 59.16C66.3917 56.856 65.9597 55.344 65.4317 54.624C63.9437 52.512 65.0957 51.288 68.8877 50.952C69.5597 50.904 70.3277 50.88 71.1917 50.88H85.3037C89.5757 50.88 91.6877 51.6 91.6397 53.04C91.6397 53.472 91.4477 54 91.0637 54.624C90.5357 55.344 90.0797 56.76 89.6957 58.872C89.3597 60.936 89.1437 62.832 89.0477 64.56L88.9037 67.152V75.792ZM85.3757 45.336C83.4077 46.824 81.0077 47.568 78.1757 47.568C75.3917 47.568 72.9917 46.824 70.9757 45.336C69.0077 43.848 68.0237 42.048 68.0237 39.936C68.0237 37.824 69.0077 36.024 70.9757 34.536C72.9917 33.048 75.3917 32.304 78.1757 32.304C81.0077 32.304 83.4077 33.048 85.3757 34.536C87.3917 36.024 88.3997 37.824 88.3997 39.936C88.3997 42.048 87.3917 43.848 85.3757 45.336ZM122.598 79.176C123.75 79.8 124.95 80.232 126.198 80.472C127.494 80.664 128.694 80.688 129.798 80.544C130.95 80.352 132.078 80.112 133.182 79.824C134.334 79.536 135.318 79.2 136.134 78.816C136.998 78.384 137.79 78.048 138.51 77.808C139.23 77.52 139.734 77.328 140.022 77.232C140.358 77.088 140.55 77.16 140.598 77.448C140.598 77.784 140.526 78.288 140.382 78.96C140.238 79.632 139.95 80.52 139.518 81.624C139.134 82.68 138.63 83.76 138.006 84.864C137.382 85.968 136.542 87.12 135.486 88.32C134.43 89.472 133.23 90.504 131.886 91.416C130.59 92.28 128.958 93 126.99 93.576C125.07 94.152 123.006 94.44 120.798 94.44C116.814 94.44 113.286 94.032 110.214 93.216C107.142 92.4 104.67 91.344 102.798 90.048C100.974 88.752 99.486 87.216 98.334 85.44C97.182 83.616 96.39 81.816 95.958 80.04C95.526 78.264 95.31 76.392 95.31 74.424C95.31 69.816 96.15 65.76 97.83 62.256C99.51 58.752 102.126 55.968 105.678 53.904C109.23 51.792 113.502 50.736 118.494 50.736C121.998 50.736 125.07 51.12 127.71 51.888C130.35 52.656 132.414 53.64 133.902 54.84C135.39 55.992 136.59 57.408 137.502 59.088C138.462 60.768 139.086 62.376 139.374 63.912C139.662 65.4 139.806 67.008 139.806 68.736C139.806 71.712 138.39 73.872 135.558 75.216C132.774 76.512 129.966 76.632 127.134 75.576C124.35 74.52 122.958 72.576 122.958 69.744C122.958 66.432 122.742 64.2 122.31 63.048C121.926 61.896 121.206 61.32 120.15 61.32C119.43 61.32 118.758 61.776 118.134 62.688C117.558 63.6 117.15 64.8 116.91 66.288C116.718 67.728 116.718 69.264 116.91 70.896C117.102 72.48 117.678 74.04 118.638 75.576C119.646 77.112 120.966 78.312 122.598 79.176ZM156.198 54.408C159.798 52.056 163.638 50.88 167.718 50.88C171.846 50.88 175.71 52.056 179.31 54.408C182.91 56.76 185.718 59.784 187.734 63.48C189.798 67.176 190.83 70.992 190.83 74.928C190.83 78.816 189.798 82.248 187.734 85.224C185.67 88.152 182.886 90.384 179.382 91.92C175.926 93.408 172.062 94.152 167.79 94.152C163.518 94.152 159.63 93.408 156.126 91.92C152.67 90.384 149.886 88.152 147.774 85.224C145.71 82.248 144.678 78.816 144.678 74.928C144.678 70.992 145.686 67.176 147.702 63.48C149.766 59.784 152.598 56.76 156.198 54.408ZM165.99 77.016C166.47 78.264 167.046 78.888 167.718 78.888C168.438 78.888 169.038 78.264 169.518 77.016C169.998 75.768 170.238 74.28 170.238 72.552C170.238 70.776 169.998 69.264 169.518 68.016C169.038 66.768 168.438 66.144 167.718 66.144C167.046 66.144 166.47 66.768 165.99 68.016C165.51 69.264 165.27 70.776 165.27 72.552C165.27 74.28 165.51 75.768 165.99 77.016ZM219.161 71.904C219.209 72.816 219.257 73.992 219.305 75.432C219.401 76.872 219.617 79.008 219.953 81.84C220.337 84.624 220.793 86.496 221.321 87.456C222.185 88.992 222.137 90.144 221.177 90.912C220.217 91.68 218.345 92.064 215.561 92.064H201.449C198.617 92.064 196.721 91.68 195.761 90.912C194.849 90.144 194.825 88.992 195.689 87.456C196.217 86.496 196.649 84.744 196.985 82.2C197.321 79.608 197.537 77.232 197.633 75.072L197.777 71.904V61.248C197.777 60.288 197.729 59.088 197.633 57.648C197.585 56.208 197.369 54.096 196.985 51.312C196.649 48.48 196.217 46.608 195.689 45.696C194.825 44.112 194.849 42.96 195.761 42.24C196.721 41.472 198.617 41.088 201.449 41.088H215.561C218.345 41.088 220.217 41.472 221.177 42.24C222.137 42.96 222.185 44.112 221.321 45.696C220.793 46.608 220.337 48.36 219.953 50.952C219.617 53.544 219.401 55.896 219.305 58.008L219.161 61.248V71.904ZM263.232 79.824C264.96 79.632 267.072 78.768 269.568 77.232C270.336 76.8 270.72 76.776 270.72 77.16C270.72 77.256 270.696 77.352 270.648 77.448C270.552 77.928 270.408 78.48 270.216 79.104C270.072 79.68 269.76 80.568 269.28 81.768C268.848 82.92 268.32 84.024 267.696 85.08C267.072 86.088 266.232 87.192 265.176 88.392C264.12 89.592 262.944 90.624 261.648 91.488C260.352 92.304 258.768 93 256.896 93.576C255.024 94.152 253.008 94.44 250.848 94.44C233.856 94.44 225.36 87.768 225.36 74.424C225.36 67.032 227.424 61.248 231.552 57.072C235.728 52.848 241.392 50.736 248.544 50.736C252 50.736 255.144 51.24 257.976 52.248C260.808 53.256 263.064 54.6 264.744 56.28C266.472 57.96 267.672 59.904 268.344 62.112C269.064 64.272 269.16 66.456 268.632 68.664C268.2 70.392 267.504 71.904 266.544 73.2C265.584 74.448 264.456 75.408 263.16 76.08C261.912 76.704 260.52 77.232 258.984 77.664C257.496 78.048 255.984 78.24 254.448 78.24C252.912 78.192 251.424 78.12 249.984 78.024C251.328 79.224 253.224 79.944 255.672 80.184C258.168 80.376 260.688 80.256 263.232 79.824ZM247.104 71.688C247.152 71.928 247.224 72.312 247.32 72.84C250.2 72.888 251.808 72 252.144 70.176C252.528 68.016 252.48 66.264 252 64.92C251.568 63.576 250.968 62.904 250.2 62.904C250.2 62.904 250.176 62.904 250.128 62.904C249.888 62.904 249.696 62.928 249.552 62.976C249.408 62.976 249.168 63.024 248.832 63.12C248.544 63.216 248.328 63.384 248.184 63.624C248.04 63.816 247.824 64.128 247.536 64.56C247.296 64.944 247.152 65.472 247.104 66.144C247.056 66.768 246.984 67.536 246.888 68.448C246.84 69.36 246.912 70.44 247.104 71.688ZM359.312 65.136C359.888 64.896 360.344 64.968 360.68 65.352C361.064 65.688 361.28 66.264 361.328 67.08C361.424 67.896 361.472 68.688 361.472 69.456C361.472 70.224 361.4 71.04 361.256 71.904C361.208 72.48 360.968 72.96 360.536 73.344C360.104 73.68 359.624 73.824 359.096 73.776C357.752 73.68 356.336 73.608 354.848 73.56C356.288 86.904 355.64 93.576 352.904 93.576H339.152C339.344 93.336 339.584 93.024 339.872 92.64C340.208 92.256 340.76 91.512 341.528 90.408C342.344 89.256 343.016 88.152 343.544 87.096C344.12 86.04 344.576 84.888 344.912 83.64C345.296 82.392 345.392 81.312 345.2 80.4C344.96 79.344 344.48 79.344 343.76 80.4C343.568 80.736 343.208 81.384 342.68 82.344C340.136 86.856 337.736 89.904 335.48 91.488C333.56 92.88 331.52 93.576 329.36 93.576C327.536 93.576 325.952 93.528 324.608 93.432C323.312 93.384 321.848 93.264 320.216 93.072C318.584 92.88 317.192 92.592 316.04 92.208C314.936 91.824 313.808 91.32 312.656 90.696C311.504 90.024 310.568 89.232 309.848 88.32C309.176 87.36 308.624 86.208 308.192 84.864C307.76 83.472 307.544 81.912 307.544 80.184C307.544 78.168 307.928 76.392 308.696 74.856C309.512 73.272 310.496 72.024 311.648 71.112C312.848 70.2 314.216 69.456 315.752 68.88C317.288 68.304 318.704 67.92 320 67.728C321.344 67.488 322.64 67.368 323.888 67.368V65.496C323.696 65.544 323.456 65.592 323.168 65.64C322.88 65.64 322.328 65.616 321.512 65.568C320.696 65.52 319.904 65.4 319.136 65.208C318.368 65.016 317.528 64.68 316.616 64.2C315.704 63.72 314.912 63.096 314.24 62.328C313.568 61.56 312.992 60.504 312.512 59.16C312.08 57.816 311.864 56.28 311.864 54.552C311.864 52.104 312.776 49.968 314.6 48.144C316.424 46.32 318.824 44.976 321.8 44.112C324.776 43.248 327.992 42.72 331.448 42.528C334.904 42.336 338.408 42.576 341.96 43.248C345.512 43.92 348.656 44.928 351.392 46.272L343.4 58.008C343.304 57.96 343.088 57.792 342.752 57.504C342.416 57.168 342.056 56.856 341.672 56.568C341.288 56.28 340.76 55.968 340.088 55.632C339.464 55.296 338.792 55.032 338.072 54.84C337.4 54.648 336.56 54.552 335.552 54.552C334.592 54.552 333.608 54.696 332.6 54.984C330.296 55.608 329.672 57.096 330.728 59.448C331.688 61.464 333.272 63.096 335.48 64.344C337.208 65.304 338.696 65.568 339.944 65.136C340.712 64.848 341.288 64.512 341.672 64.128C342.056 63.744 342.272 63.36 342.32 62.976C342.368 62.544 342.368 62.136 342.32 61.752C342.272 61.32 342.2 60.96 342.104 60.672C342.008 60.384 342.008 60.168 342.104 60.024C342.2 59.88 342.416 59.856 342.752 59.952C343.232 60.048 344.048 60.024 345.2 59.88C346.352 59.736 347.456 59.592 348.512 59.448C349.616 59.256 350.6 59.184 351.464 59.232C352.328 59.28 352.808 59.52 352.904 59.952C353.096 60.912 353.408 62.832 353.84 65.712C356.576 65.664 358.4 65.472 359.312 65.136ZM331.952 80.112C332.96 80.304 333.728 80.04 334.256 79.32C334.832 78.552 335.144 77.76 335.192 76.944L335.264 75.72C333.2 75.768 331.688 76.44 330.728 77.736C329.96 78.792 330.128 79.536 331.232 79.968C331.424 80.064 331.664 80.112 331.952 80.112ZM443.236 64.848H443.308C443.98 64.128 444.652 64.344 445.324 65.496C445.996 66.648 446.596 68.472 447.124 70.968C447.652 73.464 448.084 75.768 448.42 77.88C448.756 79.944 449.044 82.08 449.284 84.288C449.428 85.248 449.26 86.184 448.78 87.096C448.348 87.96 447.676 88.608 446.764 89.04C441.964 91.344 434.908 92.496 425.596 92.496C419.836 92.496 414.772 92.4 410.404 92.208C406.036 92.016 403.108 91.848 401.62 91.704L399.316 91.416C399.268 91.128 399.22 90.744 399.172 90.264C399.124 89.784 399.052 88.824 398.956 87.384C398.86 85.896 398.836 84.48 398.884 83.136C398.98 81.744 399.196 80.184 399.532 78.456C399.916 76.68 400.444 75.096 401.116 73.704C401.788 72.312 402.772 71.04 404.068 69.888C405.364 68.688 406.876 67.848 408.604 67.368C413.596 65.928 417.388 64.488 419.98 63.048C422.572 61.608 423.628 60.336 423.148 59.232C422.764 58.608 421.972 58.368 420.772 58.512C419.62 58.608 418.204 58.968 416.524 59.592C414.844 60.168 413.236 60.792 411.7 61.464C410.164 62.136 408.844 62.736 407.74 63.264L406.084 64.128C406.036 64.032 405.94 63.912 405.796 63.768C405.7 63.624 405.436 63.312 405.004 62.832C404.62 62.352 404.26 61.872 403.924 61.392C403.636 60.864 403.228 60.192 402.7 59.376C402.22 58.56 401.812 57.792 401.476 57.072C401.14 56.304 400.756 55.44 400.324 54.48C399.94 53.472 399.676 52.512 399.532 51.6C399.436 50.688 399.34 49.704 399.244 48.648C399.148 47.544 399.244 46.512 399.532 45.552C399.868 44.112 402.484 42.912 407.38 41.952C412.276 40.992 417.46 40.392 422.932 40.152C428.452 39.864 433.324 39.792 437.548 39.936C439.66 39.984 441.508 40.488 443.092 41.448C444.724 42.36 445.852 43.56 446.476 45.048C447.148 46.488 447.436 48.048 447.34 49.728C447.244 51.408 446.596 53.136 445.396 54.912C444.196 56.64 442.54 58.176 440.428 59.52C439.948 59.808 439.252 60.24 438.34 60.816C435.22 62.784 432.94 64.224 431.5 65.136C430.108 66.048 428.572 67.104 426.892 68.304C425.212 69.504 424.108 70.44 423.58 71.112C423.052 71.784 422.908 72.336 423.148 72.768C423.628 73.584 425.26 73.584 428.044 72.768C430.876 71.952 433.804 70.752 436.828 69.168C439.9 67.536 442.036 66.096 443.236 64.848ZM499.89 81.552C500.082 82.992 500.346 84.072 500.682 84.792C501.018 85.464 501.378 85.8 501.762 85.8C502.146 85.752 502.53 85.632 502.914 85.44C503.346 85.2 503.73 84.96 504.066 84.72C504.402 84.432 504.69 84.336 504.93 84.432C505.17 84.528 505.29 84.912 505.29 85.584C505.338 87.168 504.954 88.488 504.138 89.544C503.322 90.552 501.738 91.392 499.386 92.064C497.034 92.688 493.914 93 490.026 93C488.346 93 486.834 92.904 485.49 92.712C484.146 92.472 483.066 92.184 482.25 91.848C481.482 91.512 480.81 91.128 480.234 90.696C479.658 90.264 479.226 89.832 478.938 89.4C478.698 88.968 478.506 88.584 478.362 88.248C478.266 87.912 478.218 87.624 478.218 87.384V87.096V80.832H477.642C477.738 87.168 475.65 91.584 471.378 94.08C468.21 95.952 464.826 96.288 461.226 95.088C457.866 93.936 455.706 91.872 454.746 88.896C454.554 88.32 454.434 87.72 454.386 87.096C454.242 85.56 454.29 84.144 454.53 82.848C454.818 81.504 455.178 80.352 455.61 79.392C456.09 78.384 456.786 77.424 457.698 76.512C458.61 75.6 459.426 74.88 460.146 74.352C460.914 73.776 461.922 73.176 463.17 72.552C464.466 71.88 465.45 71.4 466.122 71.112C466.842 70.824 467.826 70.416 469.074 69.888C469.554 69.696 469.914 69.552 470.154 69.456C471.354 68.976 472.698 68.472 474.186 67.944C475.722 67.416 476.97 66.984 477.93 66.648C478.938 66.312 479.874 65.976 480.738 65.64C481.65 65.256 482.274 64.92 482.61 64.632C482.994 64.296 483.09 63.984 482.898 63.696C482.274 62.496 476.25 64.656 464.826 70.176C463.626 70.704 462.426 70.992 461.226 71.04C460.026 71.088 458.922 70.92 457.914 70.536C456.954 70.152 456.114 69.576 455.394 68.808C454.674 68.04 454.17 67.176 453.882 66.216C453.642 65.256 453.666 64.176 453.954 62.976C454.29 61.728 454.938 60.528 455.898 59.376C457.002 57.936 458.658 56.736 460.866 55.776C463.074 54.816 465.33 54.144 467.634 53.76C469.986 53.376 471.81 53.112 473.106 52.968C474.45 52.824 475.41 52.752 475.986 52.752C479.394 52.752 482.418 53.04 485.058 53.616C487.698 54.192 489.834 54.96 491.466 55.92C493.098 56.832 494.49 58.008 495.642 59.448C496.794 60.84 497.61 62.232 498.09 63.624C498.618 65.016 499.002 66.6 499.242 68.376C499.53 70.104 499.674 71.664 499.674 73.056C499.674 74.448 499.674 75.984 499.674 77.664C499.722 79.296 499.794 80.592 499.89 81.552ZM473.322 81.408C473.898 81.408 474.354 81.168 474.69 80.688C475.026 80.208 475.218 79.728 475.266 79.248V78.528C473.682 78.528 472.674 79.032 472.242 80.04C471.954 80.808 472.218 81.24 473.034 81.336C473.13 81.384 473.226 81.408 473.322 81.408ZM536.162 79.176C537.314 79.8 538.514 80.232 539.762 80.472C541.058 80.664 542.258 80.688 543.362 80.544C544.514 80.352 545.642 80.112 546.746 79.824C547.898 79.536 548.882 79.2 549.698 78.816C550.562 78.384 551.354 78.048 552.074 77.808C552.794 77.52 553.298 77.328 553.586 77.232C553.922 77.088 554.114 77.16 554.162 77.448C554.162 77.784 554.09 78.288 553.946 78.96C553.802 79.632 553.514 80.52 553.082 81.624C552.698 82.68 552.194 83.76 551.57 84.864C550.946 85.968 550.106 87.12 549.05 88.32C547.994 89.472 546.794 90.504 545.45 91.416C544.154 92.28 542.522 93 540.554 93.576C538.634 94.152 536.57 94.44 534.362 94.44C530.378 94.44 526.85 94.032 523.778 93.216C520.706 92.4 518.234 91.344 516.362 90.048C514.538 88.752 513.05 87.216 511.898 85.44C510.746 83.616 509.954 81.816 509.522 80.04C509.09 78.264 508.874 76.392 508.874 74.424C508.874 69.816 509.714 65.76 511.394 62.256C513.074 58.752 515.69 55.968 519.242 53.904C522.794 51.792 527.066 50.736 532.058 50.736C535.562 50.736 538.634 51.12 541.274 51.888C543.914 52.656 545.978 53.64 547.466 54.84C548.954 55.992 550.154 57.408 551.066 59.088C552.026 60.768 552.65 62.376 552.938 63.912C553.226 65.4 553.37 67.008 553.37 68.736C553.37 71.712 551.954 73.872 549.122 75.216C546.338 76.512 543.53 76.632 540.698 75.576C537.914 74.52 536.522 72.576 536.522 69.744C536.522 66.432 536.306 64.2 535.874 63.048C535.49 61.896 534.77 61.32 533.714 61.32C532.994 61.32 532.322 61.776 531.698 62.688C531.122 63.6 530.714 64.8 530.474 66.288C530.282 67.728 530.282 69.264 530.474 70.896C530.666 72.48 531.242 74.04 532.202 75.576C533.21 77.112 534.53 78.312 536.162 79.176ZM617.066 87.456C617.93 88.992 617.882 90.144 616.922 90.912C615.962 91.68 614.066 92.064 611.234 92.064H597.194C594.362 92.064 592.466 91.68 591.506 90.912C590.546 90.144 590.522 88.992 591.434 87.456C591.914 86.496 592.322 84.744 592.658 82.2C593.042 79.608 593.282 77.232 593.378 75.072L593.522 71.904C593.426 69.888 592.898 68.448 591.938 67.584C591.026 66.72 589.634 66.384 587.762 66.576C587.042 66.624 586.394 66.768 585.818 67.008C585.242 67.248 584.762 67.536 584.378 67.872C584.042 68.16 583.754 68.496 583.514 68.88C583.274 69.264 583.082 69.624 582.938 69.96C582.842 70.296 582.746 70.608 582.65 70.896C582.602 71.184 582.578 71.424 582.578 71.616V71.904C582.626 72.816 582.674 73.992 582.722 75.432C582.818 76.872 583.034 79.008 583.37 81.84C583.754 84.624 584.21 86.496 584.738 87.456C585.602 88.992 585.554 90.144 584.594 90.912C583.634 91.68 581.762 92.064 578.978 92.064H564.866C562.034 92.064 560.138 91.68 559.178 90.912C558.266 90.144 558.242 88.992 559.106 87.456C559.634 86.496 560.066 84.744 560.402 82.2C560.738 79.608 560.954 77.232 561.05 75.072L561.194 71.904V61.248C561.194 60.288 561.146 59.088 561.05 57.648C561.002 56.208 560.786 54.096 560.402 51.312C560.066 48.48 559.634 46.608 559.106 45.696C558.242 44.112 558.266 42.96 559.178 42.24C560.138 41.472 562.034 41.088 564.866 41.088H578.978C581.762 41.088 583.634 41.472 584.594 42.24C585.554 42.96 585.602 44.112 584.738 45.696C583.778 47.376 583.106 51.744 582.722 58.8C586.562 52.992 592.394 50.088 600.218 50.088C602.09 50.088 603.794 50.352 605.33 50.88C606.914 51.36 608.21 52.032 609.218 52.896C610.226 53.712 611.114 54.672 611.882 55.776C612.65 56.832 613.226 57.96 613.61 59.16C614.042 60.36 614.378 61.584 614.618 62.832C614.858 64.032 615.002 65.184 615.05 66.288C615.098 67.344 615.098 68.304 615.05 69.168C615.05 69.984 615.026 70.656 614.978 71.184L614.906 71.904V74.136C615.098 80.856 615.818 85.296 617.066 87.456Z" fill="#CA6028"/>
<path d="M254.96 27.04C256.62 26.36 256.8 24.94 256.8 22.64V10.04C256.8 8.94 256.76 8.22 256.64 7.4H259.9C259.78 8.22 259.74 8.94 259.74 10.04V22.64C259.74 26.12 257.34 26.78 255.04 27.3L254.96 27.04ZM265.604 23.32C263.844 23.32 262.764 22.12 262.764 19.92V15.36C262.764 14.3 262.724 13.56 262.604 12.72H265.444C265.324 13.56 265.284 14.3 265.284 15.36V19.94C265.284 21.44 265.864 22.2 266.924 22.2C267.904 22.2 268.884 21.5 269.524 20.4V20.36V15.36C269.524 14.3 269.484 13.56 269.364 12.72H272.184C272.064 13.56 272.024 14.3 272.024 15.36V20.36C272.024 21.42 272.064 22.16 272.184 23H269.364C269.464 22.34 269.504 21.74 269.524 21.02C268.644 22.4 267.144 23.32 265.604 23.32ZM281.517 23C281.637 22.16 281.677 21.42 281.677 20.36V15.78C281.677 14.26 281.077 13.52 280.017 13.52C279.037 13.52 278.037 14.22 277.397 15.34V15.36V20.36C277.397 21.42 277.437 22.16 277.557 23H274.737C274.857 22.16 274.897 21.42 274.897 20.36V15.36C274.897 14.3 274.857 13.56 274.737 12.72H277.557C277.457 13.38 277.417 13.98 277.397 14.74C278.277 13.34 279.797 12.4 281.337 12.4C283.097 12.4 284.177 13.6 284.177 15.78V20.36C284.177 21.42 284.217 22.16 284.337 23H281.517ZM291.427 23.34C288.647 23.34 286.187 21.06 286.187 17.78C286.187 14.5 288.687 12.4 291.467 12.4C293.987 12.4 296.167 14.1 296.247 16.78H288.787V16.8C288.787 19.48 290.187 22.04 292.567 22.04C294.267 22.04 295.707 20.78 296.227 18.84L296.527 18.9C295.807 21.74 293.727 23.34 291.427 23.34ZM288.807 16.36H293.607C293.547 13.98 292.767 12.78 291.407 12.78C289.927 12.78 288.907 14.16 288.807 16.36ZM304.215 23C304.335 22.16 304.375 21.44 304.375 20.36V9.36C303.795 10.38 302.555 11.24 301.515 11.64L301.455 10.78C302.795 10.6 304.475 9.36 304.915 7.4H307.315V20.36C307.315 21.44 307.355 22.18 307.475 23H304.215ZM311.988 23C312.108 22.16 312.148 21.44 312.148 20.36V9.36C311.568 10.38 310.328 11.24 309.288 11.64L309.228 10.78C310.568 10.6 312.248 9.36 312.688 7.4H315.088V20.36C315.088 21.44 315.128 22.18 315.248 23H311.988ZM321.319 23.34C319.519 23.34 318.439 22.1 318.439 20.08V13.18H316.859V12.72H317.099C318.879 12.72 318.979 11.4 318.979 8.62H321.499C321.499 10.42 320.899 12.18 318.639 12.72H324.339V13.18H320.939V19.82C320.939 21.2 321.499 22.04 322.419 22.04C323.559 22.04 324.299 20.9 324.559 18.78H324.879C324.539 21.76 323.319 23.34 321.319 23.34ZM333.138 23C333.258 22.16 333.298 21.42 333.298 20.36V15.78C333.298 14.26 332.698 13.52 331.638 13.52C330.658 13.52 329.658 14.22 329.018 15.34V20.36C329.018 21.42 329.058 22.16 329.178 23H326.358C326.478 22.16 326.518 21.42 326.518 20.36V9.84C326.518 8.78 326.478 8.04 326.358 7.2H329.178C329.058 8.04 329.018 8.78 329.018 9.84V14.76C329.898 13.34 331.418 12.4 332.958 12.4C334.718 12.4 335.798 13.6 335.798 15.78V20.36C335.798 21.42 335.838 22.16 335.958 23H333.138ZM337.163 25.7C337.983 25.2 338.643 24.28 338.723 23.56L337.203 22.56L338.443 20.58L340.443 21.8C340.123 23.34 338.923 25.24 337.383 26.06L337.163 25.7ZM350.003 22.52C350.003 17.54 357.703 16.82 357.703 11.38C357.703 8.78 355.963 7.7 354.303 7.7C352.703 7.7 351.203 8.66 351.203 10.34C351.203 11.32 351.843 12.02 352.563 12.56C353.083 12.98 353.283 13.38 353.283 13.78C353.283 14.38 352.803 14.9 352.103 14.98C350.583 14.04 349.883 12.7 349.883 11.4C349.883 9.22 351.863 7.14 355.143 7.14C357.903 7.14 360.743 8.64 360.743 11.68C360.743 16.98 351.403 17.88 350.623 21.48H354.323C357.163 21.48 359.523 21.18 361.083 20.64L360.743 23H350.003V22.52ZM369.595 23.34C365.335 23.34 362.715 19.56 362.715 15.24C362.715 10.9 365.335 7.16 369.595 7.16C373.875 7.16 376.475 10.9 376.475 15.24C376.475 19.58 373.855 23.34 369.595 23.34ZM365.815 15.24C365.815 19.84 367.335 22.88 369.595 22.88C371.855 22.88 373.375 19.86 373.375 15.22C373.375 10.6 371.855 7.6 369.595 7.6C367.335 7.6 365.815 10.62 365.815 15.24ZM378.323 22.52C378.323 17.54 386.023 16.82 386.023 11.38C386.023 8.78 384.283 7.7 382.623 7.7C381.023 7.7 379.523 8.66 379.523 10.34C379.523 11.32 380.163 12.02 380.883 12.56C381.403 12.98 381.603 13.38 381.603 13.78C381.603 14.38 381.123 14.9 380.423 14.98C378.903 14.04 378.203 12.7 378.203 11.4C378.203 9.22 380.183 7.14 383.463 7.14C386.223 7.14 389.063 8.64 389.063 11.68C389.063 16.98 379.723 17.88 378.943 21.48H382.643C385.483 21.48 387.843 21.18 389.403 20.64L389.063 23H378.323V22.52ZM397.876 23.34C393.556 23.34 391.036 19.84 391.036 15.28C391.036 10.34 394.096 7.16 398.036 7.16C400.056 7.16 402.076 7.84 403.176 8.74C403.236 9.58 402.836 10.3 401.976 10.3C401.196 10.3 400.756 9.8 400.376 9.22C399.816 8.48 399.256 7.56 397.896 7.56C395.196 7.56 394.076 11.6 394.076 15.32V15.88C395.076 13.84 396.936 12.84 398.776 12.84C401.696 12.84 403.656 15.12 403.656 17.94C403.656 20.78 401.676 23.34 397.876 23.34ZM394.116 16.74C394.356 20.44 395.576 22.94 397.676 22.94C399.596 22.94 400.656 20.96 400.656 18.42C400.656 15.56 399.496 13.86 397.576 13.86C396.156 13.86 394.716 14.84 394.116 16.74Z" fill="#CA6028"/>
<path d="M189.608 167.868C187.16 167.868 184.803 167.505 182.536 166.78C180.269 166.1 178.275 165.057 176.552 163.652C175.555 163.833 174.512 163.969 173.424 164.06C172.336 164.151 171.203 164.196 170.024 164.196C169.027 164.196 167.893 164.06 166.624 163.788C165.355 163.516 164.38 163.063 163.7 162.428C163.609 162.337 163.564 162.247 163.564 162.156C163.564 161.975 163.632 161.839 163.768 161.748C163.949 161.703 164.108 161.748 164.244 161.884C164.788 162.337 165.627 162.655 166.76 162.836C167.893 163.063 168.981 163.176 170.024 163.176C172.019 163.176 173.855 163.04 175.532 162.768C174.036 161.317 172.857 159.572 171.996 157.532C171.135 155.492 170.749 153.157 170.84 150.528C168.483 149.621 166.737 148.307 165.604 146.584C164.471 144.861 163.904 143.025 163.904 141.076C163.904 139.172 164.425 137.359 165.468 135.636C166.556 133.868 168.12 132.417 170.16 131.284C172.245 130.151 174.784 129.584 177.776 129.584C179.045 129.584 180.428 129.72 181.924 129.992C184.599 127.952 187.296 126.456 190.016 125.504C192.736 124.552 194.957 124.076 196.68 124.076C199.491 124.076 201.553 124.779 202.868 126.184C204.183 127.544 204.84 129.267 204.84 131.352C204.84 133.709 204.047 136.271 202.46 139.036C200.873 141.801 198.561 144.249 195.524 146.38C195.343 148.737 194.572 151.072 193.212 153.384C191.897 155.651 190.016 157.668 187.568 159.436C185.12 161.204 182.06 162.496 178.388 163.312C180.927 165.035 183.851 165.896 187.16 165.896C189.653 165.896 192.147 165.352 194.64 164.264C197.179 163.176 199.491 161.521 201.576 159.3C203.707 157.033 205.407 154.177 206.676 150.732C207.945 147.241 208.58 143.116 208.58 138.356C208.58 137.404 208.557 136.429 208.512 135.432C208.467 134.389 208.376 133.324 208.24 132.236C208.104 130.876 207.809 129.425 207.356 127.884C206.948 126.343 206.563 124.756 206.2 123.124C205.837 121.492 205.656 119.883 205.656 118.296C205.656 116.8 205.883 115.349 206.336 113.944C206.835 112.493 207.719 111.133 208.988 109.864C210.031 108.776 211.255 107.983 212.66 107.484C214.111 106.94 215.516 106.668 216.876 106.668C219.143 106.668 220.865 107.257 222.044 108.436C222.497 108.889 222.815 109.343 222.996 109.796C223.177 110.204 223.268 110.589 223.268 110.952C223.268 111.677 222.996 112.04 222.452 112.04C222.089 112.04 221.727 111.836 221.364 111.428C220.684 110.657 219.755 110.068 218.576 109.66C217.443 109.207 216.287 108.98 215.108 108.98C214.201 108.98 213.317 109.116 212.456 109.388C211.64 109.66 210.915 110.113 210.28 110.748C209.283 111.745 208.557 112.856 208.104 114.08C207.696 115.259 207.492 116.505 207.492 117.82C207.492 119.497 207.741 121.22 208.24 122.988C208.784 124.756 209.396 126.479 210.076 128.156C210.756 129.788 211.3 131.329 211.708 132.78C212.932 136.905 213.544 140.668 213.544 144.068C213.544 148.057 212.841 151.548 211.436 154.54C210.076 157.532 208.217 160.003 205.86 161.952C203.548 163.947 200.964 165.42 198.108 166.372C195.297 167.369 192.464 167.868 189.608 167.868ZM195.592 144.476C198.221 142.391 200.261 140.124 201.712 137.676C203.163 135.183 203.888 132.916 203.888 130.876C203.888 129.153 203.299 127.725 202.12 126.592C200.987 125.459 199.173 124.892 196.68 124.892C195.093 124.892 193.076 125.323 190.628 126.184C188.225 127.045 185.823 128.405 183.42 130.264C187.319 131.261 190.288 133.097 192.328 135.772C194.368 138.401 195.456 141.303 195.592 144.476ZM170.908 149.236C171.044 148.148 171.248 146.969 171.52 145.7C172.291 142.345 173.537 139.444 175.26 136.996C177.028 134.503 178.955 132.395 181.04 130.672C180.496 130.581 179.975 130.513 179.476 130.468C178.977 130.423 178.479 130.4 177.98 130.4C175.26 130.4 172.948 130.921 171.044 131.964C169.185 133.007 167.757 134.344 166.76 135.976C165.808 137.608 165.332 139.285 165.332 141.008C165.332 142.64 165.785 144.204 166.692 145.7C167.599 147.196 169.004 148.375 170.908 149.236ZM177.912 150.596C181.267 150.596 184.349 150.075 187.16 149.032C190.016 147.989 192.555 146.675 194.776 145.088C194.821 142.957 194.368 140.94 193.416 139.036C192.509 137.087 191.149 135.409 189.336 134.004C187.523 132.553 185.279 131.533 182.604 130.944C180.519 132.621 178.615 134.729 176.892 137.268C175.169 139.761 173.923 142.685 173.152 146.04C172.835 147.309 172.631 148.579 172.54 149.848C174.127 150.347 175.917 150.596 177.912 150.596ZM177.3 162.496C180.881 161.771 183.896 160.615 186.344 159.028C188.837 157.441 190.764 155.605 192.124 153.52C193.484 151.389 194.323 149.213 194.64 146.992C192.464 148.397 189.971 149.553 187.16 150.46C184.349 151.321 181.267 151.752 177.912 151.752C176.915 151.752 175.94 151.684 174.988 151.548C174.081 151.412 173.243 151.253 172.472 151.072C172.427 153.565 172.835 155.787 173.696 157.736C174.603 159.64 175.804 161.227 177.3 162.496ZM230.415 135.84C229.781 135.84 229.237 135.636 228.783 135.228C228.375 134.775 228.171 134.253 228.171 133.664C228.171 132.893 228.421 132.236 228.919 131.692C229.463 131.148 230.098 130.876 230.823 130.876C231.458 130.876 232.002 131.103 232.455 131.556C232.909 132.009 233.135 132.576 233.135 133.256C233.135 133.981 232.863 134.593 232.319 135.092C231.775 135.591 231.141 135.84 230.415 135.84ZM222.935 161.34C222.119 161.34 221.462 161.045 220.963 160.456C220.51 159.821 220.283 159.005 220.283 158.008C220.283 156.739 220.533 155.379 221.031 153.928C221.575 152.477 222.187 151.027 222.867 149.576C223.593 148.08 224.227 146.675 224.771 145.36C224.998 144.725 225.202 144.159 225.383 143.66C225.565 143.161 225.655 142.753 225.655 142.436C225.655 141.983 225.451 141.756 225.043 141.756C224.499 141.756 223.955 142.096 223.411 142.776C222.867 143.456 222.369 144.227 221.915 145.088C221.507 145.904 221.167 146.561 220.895 147.06C220.215 148.375 219.467 149.735 218.651 151.14C217.881 152.545 217.087 153.837 216.271 155.016C216.271 155.061 216.226 155.084 216.135 155.084C216.045 155.084 215.931 155.016 215.795 154.88C215.659 154.744 215.614 154.653 215.659 154.608C216.521 153.384 217.314 152.092 218.039 150.732C218.81 149.327 219.513 147.989 220.147 146.72C220.601 145.768 221.099 144.793 221.643 143.796C222.233 142.753 222.913 141.892 223.683 141.212C224.454 140.487 225.338 140.124 226.335 140.124C226.789 140.124 227.31 140.237 227.899 140.464C228.579 140.736 228.919 141.325 228.919 142.232C228.919 142.685 228.829 143.229 228.647 143.864C228.511 144.453 228.307 145.133 228.035 145.904C227.446 147.445 226.789 149.009 226.063 150.596C225.383 152.137 224.749 153.701 224.159 155.288C223.706 156.512 223.479 157.6 223.479 158.552C223.479 159.595 223.819 160.116 224.499 160.116C225.134 160.116 226.109 159.549 227.423 158.416C228.738 157.237 229.962 155.764 231.095 153.996C232.229 152.183 233.589 149.757 235.175 146.72C235.221 146.629 235.311 146.584 235.447 146.584C235.538 146.584 235.629 146.652 235.719 146.788C235.855 146.879 235.901 146.969 235.855 147.06C233.453 151.729 231.299 155.288 229.395 157.736C227.491 160.139 225.338 161.34 222.935 161.34ZM235.563 161.34C234.022 161.34 232.957 160.909 232.367 160.048C231.823 159.187 231.551 158.121 231.551 156.852C231.551 155.537 231.778 154.155 232.231 152.704C232.685 151.253 233.115 150.097 233.523 149.236C234.974 146.199 236.991 143.887 239.575 142.3C242.205 140.668 244.902 139.852 247.667 139.852C248.03 139.852 248.393 139.852 248.755 139.852C249.163 139.852 249.549 139.897 249.911 139.988C250.818 140.124 251.271 140.237 251.271 140.328C251.271 140.419 250.931 140.509 250.251 140.6C249.617 140.691 249.141 140.736 248.823 140.736C246.602 140.736 244.607 141.325 242.839 142.504C241.117 143.683 239.643 145.179 238.419 146.992C237.195 148.805 236.243 150.664 235.563 152.568C234.929 154.427 234.611 156.036 234.611 157.396C234.611 158.257 234.747 158.96 235.019 159.504C235.337 160.048 235.79 160.32 236.379 160.32C237.014 160.32 237.739 159.889 238.555 159.028C239.371 158.167 240.165 157.124 240.935 155.9C241.706 154.631 242.409 153.407 243.043 152.228C243.678 151.004 244.154 150.075 244.471 149.44L247.395 143.32C248.166 143.139 248.937 142.935 249.707 142.708C250.523 142.436 251.294 142.141 252.019 141.824C251.249 143.139 250.501 144.521 249.775 145.972C249.095 147.423 248.393 148.851 247.667 150.256C247.123 151.299 246.579 152.523 246.035 153.928C245.537 155.333 245.287 156.603 245.287 157.736V158.008C245.287 158.371 245.333 158.779 245.423 159.232C245.514 159.64 245.763 159.844 246.171 159.844C246.67 159.844 247.305 159.549 248.075 158.96C248.846 158.325 249.39 157.849 249.707 157.532C251.158 156.081 252.405 154.472 253.447 152.704C254.535 150.936 255.533 149.145 256.439 147.332C256.53 147.241 256.598 147.196 256.643 147.196C257.006 147.196 257.142 147.377 257.051 147.74C257.051 147.74 256.938 147.944 256.711 148.352C256.53 148.76 256.417 148.987 256.371 149.032C255.51 150.619 254.649 152.137 253.787 153.588C252.926 155.039 251.906 156.421 250.727 157.736C250.002 158.461 249.118 159.232 248.075 160.048C247.033 160.864 245.99 161.272 244.947 161.272C243.95 161.272 243.247 160.887 242.839 160.116C242.431 159.3 242.227 158.393 242.227 157.396C242.227 156.761 242.273 156.149 242.363 155.56C242.499 154.925 242.635 154.381 242.771 153.928C242.454 154.744 241.887 155.741 241.071 156.92C240.301 158.099 239.417 159.141 238.419 160.048C237.467 160.909 236.515 161.34 235.563 161.34ZM261.021 161.34C259.117 161.34 258.165 160.275 258.165 158.144C258.165 157.328 258.324 156.353 258.641 155.22C258.959 154.087 259.457 152.84 260.137 151.48C260.5 150.664 260.999 149.689 261.633 148.556C262.268 147.377 262.835 146.221 263.333 145.088C263.877 143.955 264.149 143.048 264.149 142.368C264.149 141.688 263.787 141.348 263.061 141.348C262.744 141.348 262.336 141.439 261.837 141.62C261.339 141.756 260.659 141.937 259.797 142.164C259.435 143.071 258.845 144.34 258.029 145.972C257.259 147.559 256.397 149.191 255.445 150.868C254.493 152.545 253.587 153.996 252.725 155.22C252.725 155.22 252.703 155.243 252.657 155.288C252.657 155.288 252.612 155.288 252.521 155.288C252.431 155.288 252.295 155.265 252.113 155.22C251.977 155.129 251.932 155.061 251.977 155.016C252.703 153.973 253.451 152.772 254.221 151.412C254.992 150.007 255.717 148.624 256.397 147.264C257.123 145.904 257.712 144.748 258.165 143.796C258.664 142.799 258.936 142.209 258.981 142.028C258.301 141.801 257.757 141.28 257.349 140.464C256.987 139.603 256.805 138.741 256.805 137.88C256.805 137.109 256.987 136.452 257.349 135.908C257.712 135.364 258.256 135.092 258.981 135.092C259.525 135.092 259.888 135.387 260.069 135.976C260.296 136.52 260.409 137.177 260.409 137.948C260.409 138.945 260.296 139.943 260.069 140.94C260.069 140.94 260.319 140.895 260.817 140.804C261.316 140.713 261.905 140.645 262.585 140.6C263.265 140.509 263.855 140.464 264.353 140.464C265.849 140.464 266.597 141.189 266.597 142.64C266.597 143.547 266.348 144.725 265.849 146.176C265.351 147.581 264.716 149.213 263.945 151.072C262.404 154.744 261.633 157.328 261.633 158.824C261.633 159.731 261.928 160.184 262.517 160.184C263.243 160.184 264.263 159.595 265.577 158.416C266.892 157.237 268.093 155.764 269.181 153.996C270.315 152.183 271.697 149.757 273.329 146.72C273.375 146.629 273.443 146.584 273.533 146.584C273.669 146.584 273.783 146.652 273.873 146.788C274.009 146.879 274.055 146.969 274.009 147.06C271.516 151.775 269.34 155.333 267.481 157.736C265.623 160.139 263.469 161.34 261.021 161.34ZM264.431 188.2C263.706 188.2 263.139 187.951 262.731 187.452C262.278 186.999 262.051 186.296 262.051 185.344C262.051 184.573 262.232 183.667 262.595 182.624C262.912 181.581 263.434 180.403 264.159 179.088C265.066 177.456 266.131 175.779 267.355 174.056C268.579 172.333 269.871 170.701 271.231 169.16C272.591 167.619 273.86 166.281 275.039 165.148C276.263 164.015 277.283 163.244 278.099 162.836C278.28 162.383 278.53 161.657 278.847 160.66C279.21 159.663 279.572 158.62 279.935 157.532C280.343 156.399 280.683 155.447 280.955 154.676C281.227 153.905 281.363 153.52 281.363 153.52C280.728 154.653 280.003 155.832 279.187 157.056C278.416 158.235 277.578 159.255 276.671 160.116C275.764 160.932 274.79 161.34 273.747 161.34C272.206 161.34 271.14 160.909 270.551 160.048C270.007 159.141 269.735 158.076 269.735 156.852C269.735 155.537 269.962 154.155 270.415 152.704C270.868 151.253 271.299 150.097 271.707 149.236C273.158 146.199 275.175 143.887 277.759 142.3C280.388 140.668 283.086 139.852 285.851 139.852C286.214 139.852 286.576 139.852 286.939 139.852C287.347 139.852 287.732 139.897 288.095 139.988C289.002 140.124 289.455 140.237 289.455 140.328C289.455 140.419 289.115 140.509 288.435 140.6C287.8 140.691 287.324 140.736 287.007 140.736C284.786 140.736 282.791 141.325 281.023 142.504C279.3 143.683 277.827 145.179 276.603 146.992C275.379 148.805 274.427 150.664 273.747 152.568C273.112 154.427 272.795 156.036 272.795 157.396C272.795 158.257 272.931 158.96 273.203 159.504C273.52 160.048 273.974 160.32 274.563 160.32C275.198 160.32 275.923 159.889 276.739 159.028C277.555 158.167 278.348 157.124 279.119 155.9C279.89 154.631 280.592 153.407 281.227 152.228C281.862 151.004 282.338 150.075 282.655 149.44L285.579 143.32C286.35 143.139 287.211 142.912 288.163 142.64C289.115 142.368 289.954 142.073 290.679 141.756C289.954 142.572 289.16 143.705 288.299 145.156C287.438 146.561 286.69 147.967 286.055 149.372C285.375 150.959 284.786 152.409 284.287 153.724C283.834 154.993 283.38 156.24 282.927 157.464C282.519 158.688 282.043 160.048 281.499 161.544C283.675 160.184 285.398 158.847 286.667 157.532C287.982 156.172 289.115 154.699 290.067 153.112C291.064 151.525 292.107 149.712 293.195 147.672C293.286 147.536 293.399 147.468 293.535 147.468C293.671 147.468 293.784 147.536 293.875 147.672C293.966 147.763 293.966 147.899 293.875 148.08C292.651 150.347 291.495 152.319 290.407 153.996C289.364 155.673 288.118 157.192 286.667 158.552C285.262 159.912 283.403 161.295 281.091 162.7C280.32 164.74 279.414 167.029 278.371 169.568C277.328 172.107 276.195 174.577 274.971 176.98C273.792 179.428 272.546 181.559 271.231 183.372C270.098 184.959 268.919 186.16 267.695 186.976C266.426 187.792 265.338 188.2 264.431 188.2ZM264.635 187.248C265.179 187.248 265.882 186.84 266.743 186.024C267.559 185.208 268.488 183.893 269.531 182.08C270.392 180.539 271.254 178.839 272.115 176.98C273.022 175.167 273.86 173.376 274.631 171.608C275.402 169.84 276.059 168.299 276.603 166.984C277.147 165.669 277.51 164.785 277.691 164.332C276.739 164.876 275.696 165.715 274.563 166.848C273.43 167.981 272.274 169.273 271.095 170.724C269.916 172.175 268.828 173.693 267.831 175.28C266.788 176.867 265.904 178.385 265.179 179.836C264.59 180.969 264.182 182.012 263.955 182.964C263.683 183.916 263.547 184.709 263.547 185.344C263.547 186.613 263.91 187.248 264.635 187.248ZM294.067 161.34C292.526 161.34 291.46 160.909 290.871 160.048C290.327 159.187 290.055 158.121 290.055 156.852C290.055 155.537 290.282 154.155 290.735 152.704C291.188 151.253 291.619 150.097 292.027 149.236C293.478 146.199 295.495 143.887 298.079 142.3C300.708 140.668 303.406 139.852 306.171 139.852C306.534 139.852 306.896 139.852 307.259 139.852C307.667 139.852 308.052 139.897 308.415 139.988C309.322 140.124 309.775 140.237 309.775 140.328C309.775 140.419 309.435 140.509 308.755 140.6C308.12 140.691 307.644 140.736 307.327 140.736C305.106 140.736 303.111 141.325 301.343 142.504C299.62 143.683 298.147 145.179 296.923 146.992C295.699 148.805 294.747 150.664 294.067 152.568C293.432 154.427 293.115 156.036 293.115 157.396C293.115 158.257 293.251 158.96 293.523 159.504C293.84 160.048 294.294 160.32 294.883 160.32C295.518 160.32 296.243 159.889 297.059 159.028C297.875 158.167 298.668 157.124 299.439 155.9C300.21 154.631 300.912 153.407 301.547 152.228C302.182 151.004 302.658 150.075 302.975 149.44L305.899 143.32C306.67 143.139 307.44 142.935 308.211 142.708C309.027 142.436 309.798 142.141 310.523 141.824C309.752 143.139 309.004 144.521 308.279 145.972C307.599 147.423 306.896 148.851 306.171 150.256C305.627 151.299 305.083 152.523 304.539 153.928C304.04 155.333 303.791 156.603 303.791 157.736V158.008C303.791 158.371 303.836 158.779 303.927 159.232C304.018 159.64 304.267 159.844 304.675 159.844C305.174 159.844 305.808 159.549 306.579 158.96C307.35 158.325 307.894 157.849 308.211 157.532C309.662 156.081 310.908 154.472 311.951 152.704C313.039 150.936 314.036 149.145 314.943 147.332C315.034 147.241 315.102 147.196 315.147 147.196C315.51 147.196 315.646 147.377 315.555 147.74C315.555 147.74 315.442 147.944 315.215 148.352C315.034 148.76 314.92 148.987 314.875 149.032C314.014 150.619 313.152 152.137 312.291 153.588C311.43 155.039 310.41 156.421 309.231 157.736C308.506 158.461 307.622 159.232 306.579 160.048C305.536 160.864 304.494 161.272 303.451 161.272C302.454 161.272 301.751 160.887 301.343 160.116C300.935 159.3 300.731 158.393 300.731 157.396C300.731 156.761 300.776 156.149 300.867 155.56C301.003 154.925 301.139 154.381 301.275 153.928C300.958 154.744 300.391 155.741 299.575 156.92C298.804 158.099 297.92 159.141 296.923 160.048C295.971 160.909 295.019 161.34 294.067 161.34ZM315.921 161.34C314.425 161.34 313.383 160.932 312.793 160.116C312.249 159.255 311.977 158.212 311.977 156.988C311.977 155.673 312.204 154.291 312.657 152.84C313.111 151.344 313.541 150.143 313.949 149.236C315.173 146.38 316.715 144.159 318.573 142.572C320.432 140.94 322.132 140.124 323.673 140.124C324.988 140.124 325.872 140.509 326.325 141.28C326.824 142.051 327.073 143.003 327.073 144.136C327.073 145.315 326.869 146.561 326.461 147.876C326.099 149.145 325.691 150.233 325.237 151.14C324.693 152.273 324.127 153.339 323.537 154.336C322.948 155.333 322.336 156.24 321.701 157.056C322.109 157.419 322.608 157.6 323.197 157.6C324.104 157.6 324.988 157.169 325.849 156.308C326.756 155.447 327.595 154.381 328.365 153.112C329.181 151.843 329.884 150.619 330.473 149.44C331.108 148.261 331.584 147.377 331.901 146.788C331.992 146.652 332.083 146.584 332.173 146.584C332.264 146.584 332.355 146.675 332.445 146.856C332.536 146.992 332.536 147.151 332.445 147.332C331.72 148.873 330.813 150.596 329.725 152.5C328.683 154.404 327.504 155.968 326.189 157.192C325.645 157.691 325.124 158.053 324.625 158.28C324.127 158.507 323.673 158.62 323.265 158.62C322.495 158.62 321.815 158.325 321.225 157.736C320.364 158.869 319.48 159.753 318.573 160.388C317.667 161.023 316.783 161.34 315.921 161.34ZM316.737 160.32C317.236 160.32 317.825 160.025 318.505 159.436C319.185 158.801 319.888 157.985 320.613 156.988C320.613 156.988 320.477 156.761 320.205 156.308C319.979 155.855 319.865 155.175 319.865 154.268C319.865 153.905 319.888 153.52 319.933 153.112C319.979 152.659 320.092 152.205 320.273 151.752C320.591 150.845 320.976 150.188 321.429 149.78C321.883 149.327 322.336 149.1 322.789 149.1C323.197 149.1 323.515 149.304 323.741 149.712C324.013 150.075 324.081 150.619 323.945 151.344C324.58 149.939 325.101 148.579 325.509 147.264C325.917 145.904 326.121 144.725 326.121 143.728C326.121 142.957 325.963 142.345 325.645 141.892C325.373 141.393 324.875 141.144 324.149 141.144C323.515 141.144 322.789 141.552 321.973 142.368C321.157 143.139 320.319 144.181 319.457 145.496C318.641 146.765 317.871 148.148 317.145 149.644C316.465 151.14 315.899 152.613 315.445 154.064C315.037 155.469 314.833 156.693 314.833 157.736C314.833 158.507 314.969 159.141 315.241 159.64C315.559 160.093 316.057 160.32 316.737 160.32ZM354.122 166.236C352.036 166.236 350.11 165.941 348.342 165.352C346.574 164.763 345.146 163.743 344.058 162.292C343.015 160.887 342.494 158.937 342.494 156.444C342.494 154.177 343.106 152.001 344.33 149.916C345.554 147.831 347.163 145.927 349.158 144.204C351.152 142.436 353.283 140.895 355.55 139.58C356.094 139.308 356.456 139.172 356.638 139.172C356.819 139.172 356.91 139.24 356.91 139.376C356.91 139.557 356.683 139.807 356.23 140.124C351.968 142.572 348.886 145.224 346.982 148.08C345.123 150.891 344.194 153.543 344.194 156.036C344.194 158.665 345.146 160.887 347.05 162.7C348.954 164.513 351.492 165.42 354.666 165.42C356.388 165.42 358.202 165.125 360.106 164.536C361.42 164.128 362.599 163.561 363.642 162.836C364.684 162.156 365.682 161.317 366.634 160.32C365.364 158.597 364.39 156.557 363.71 154.2C363.075 151.843 362.758 149.372 362.758 146.788C362.758 144.703 362.984 142.595 363.438 140.464C363.891 138.333 364.548 136.293 365.41 134.344C364.775 132.531 364.458 130.627 364.458 128.632C364.458 125.595 365.206 122.557 366.702 119.52C368.243 116.437 370.646 113.921 373.91 111.972C376.448 110.431 379.078 109.388 381.798 108.844C384.563 108.3 387.328 108.028 390.094 108.028C392.406 108.028 394.695 108.164 396.962 108.436C399.228 108.663 401.404 108.889 403.49 109.116C404.895 107.711 406.3 106.645 407.706 105.92C409.111 105.149 410.539 104.764 411.99 104.764C413.032 104.764 413.803 104.923 414.302 105.24C414.8 105.557 415.05 105.943 415.05 106.396C415.05 106.985 414.71 107.597 414.03 108.232C413.35 108.867 412.466 109.343 411.378 109.66C410.38 109.932 409.315 110.091 408.182 110.136C407.094 110.181 406.096 110.181 405.19 110.136C403.875 111.677 402.56 113.445 401.246 115.44C399.976 117.389 398.775 119.384 397.642 121.424C400.044 122.24 401.835 123.441 403.014 125.028C404.192 126.615 404.782 128.337 404.782 130.196C404.782 132.145 404.102 134.117 402.742 136.112C401.382 138.061 399.342 139.761 396.622 141.212C393.947 142.617 390.57 143.501 386.49 143.864C384.404 147.445 382.047 150.777 379.418 153.86C376.788 156.897 373.842 159.436 370.578 161.476C371.847 162.337 373.252 163.017 374.794 163.516C376.38 164.06 378.126 164.332 380.03 164.332C382.07 164.332 383.996 164.083 385.81 163.584C387.623 163.131 389.164 162.519 390.434 161.748C391.703 160.977 392.519 160.161 392.882 159.3C393.018 159.073 393.154 158.96 393.29 158.96C393.562 158.96 393.63 159.187 393.494 159.64C393.086 160.728 392.202 161.703 390.842 162.564C389.482 163.471 387.85 164.173 385.946 164.672C384.042 165.171 382.07 165.42 380.03 165.42C377.899 165.42 375.95 165.103 374.182 164.468C372.459 163.879 370.918 163.085 369.558 162.088C368.016 162.949 366.407 163.697 364.73 164.332C363.098 164.967 361.352 165.443 359.494 165.76C358.632 165.896 357.748 166.009 356.842 166.1C355.935 166.191 355.028 166.236 354.122 166.236ZM405.938 109.32C408.839 109.456 410.924 109.184 412.194 108.504C413.508 107.779 414.166 107.121 414.166 106.532C414.166 105.852 413.622 105.512 412.534 105.512C412.171 105.512 411.604 105.625 410.834 105.852C410.018 106.124 409.202 106.555 408.386 107.144C407.57 107.733 406.754 108.459 405.938 109.32ZM366.906 133.052C368.402 130.695 370.283 128.587 372.55 126.728C374.862 124.869 377.627 123.396 380.846 122.308C384.064 121.175 387.804 120.608 392.066 120.608C392.519 120.608 392.972 120.608 393.426 120.608C393.879 120.608 394.332 120.631 394.786 120.676C396.1 118.545 397.415 116.573 398.73 114.76C400.09 112.901 401.427 111.269 402.742 109.864C401.427 109.728 400.09 109.615 398.73 109.524C397.37 109.433 396.01 109.388 394.65 109.388C391.567 109.388 388.439 109.728 385.266 110.408C382.138 111.043 379.032 112.289 375.95 114.148C372.776 116.007 370.374 118.341 368.742 121.152C367.155 123.917 366.362 126.66 366.362 129.38C366.362 130.604 366.543 131.828 366.906 133.052ZM381.458 143.048C383.679 139.512 385.832 135.908 387.918 132.236C390.048 128.519 392.134 125.005 394.174 121.696C393.766 121.651 393.358 121.628 392.95 121.628C392.587 121.628 392.224 121.628 391.862 121.628C387.736 121.628 384.087 122.217 380.914 123.396C377.74 124.529 375.02 126.048 372.754 127.952C370.532 129.856 368.719 131.987 367.314 134.344C368.266 136.565 369.92 138.492 372.278 140.124C374.635 141.711 377.695 142.685 381.458 143.048ZM387.034 142.98C390.706 142.527 393.698 141.665 396.01 140.396C398.367 139.081 400.09 137.563 401.178 135.84C402.311 134.072 402.878 132.304 402.878 130.536C402.878 128.813 402.379 127.227 401.382 125.776C400.384 124.28 398.956 123.147 397.098 122.376C395.284 125.731 393.607 129.176 392.066 132.712C390.57 136.203 388.892 139.625 387.034 142.98ZM368.402 159.572C370.668 157.577 372.844 155.22 374.93 152.5C377.015 149.78 379.032 146.879 380.982 143.796C377.446 143.433 374.476 142.504 372.074 141.008C369.671 139.467 367.858 137.631 366.634 135.5C365.682 137.313 364.956 139.195 364.458 141.144C364.004 143.048 363.778 144.929 363.778 146.788C363.778 149.236 364.163 151.571 364.934 153.792C365.704 156.013 366.86 157.94 368.402 159.572ZM405.473 161.68C402.572 161.68 400.577 161.159 399.489 160.116C398.447 159.073 397.925 157.917 397.925 156.648C397.925 155.469 398.22 154.404 398.809 153.452C399.399 152.455 399.988 151.865 400.577 151.684C400.985 150.959 401.416 150.165 401.869 149.304C402.368 148.443 402.821 147.604 403.229 146.788C404.045 145.156 404.884 143.615 405.745 142.164C406.607 140.668 407.536 139.467 408.533 138.56C409.576 137.653 410.664 137.2 411.797 137.2C412.341 137.2 412.908 137.313 413.497 137.54C414.087 137.812 414.381 138.084 414.381 138.356C414.381 138.537 414.291 138.673 414.109 138.764C413.928 138.855 413.724 138.877 413.497 138.832C412.681 138.605 411.933 138.832 411.253 139.512C410.573 140.192 410.233 141.121 410.233 142.3C410.233 142.481 410.233 142.685 410.233 142.912C410.279 143.093 410.324 143.297 410.369 143.524C410.641 144.612 410.913 145.859 411.185 147.264C411.503 148.669 411.661 150.097 411.661 151.548C411.661 152.092 411.639 152.636 411.593 153.18C411.548 153.724 411.435 154.245 411.253 154.744C410.664 156.421 409.848 157.759 408.805 158.756C407.808 159.708 406.584 160.411 405.133 160.864C406.221 160.909 407.355 160.819 408.533 160.592C409.757 160.32 410.8 159.935 411.661 159.436C413.157 158.575 414.472 157.396 415.605 155.9C416.784 154.404 417.827 152.84 418.733 151.208C419.64 149.531 420.456 148.012 421.181 146.652C421.227 146.471 421.363 146.38 421.589 146.38C421.725 146.38 421.839 146.448 421.929 146.584C422.02 146.675 422.02 146.788 421.929 146.924C421.023 148.601 420.093 150.301 419.141 152.024C418.189 153.701 417.124 155.265 415.945 156.716C414.767 158.121 413.361 159.277 411.729 160.184C409.961 161.181 407.876 161.68 405.473 161.68ZM402.685 160.524C403.592 160.524 404.521 160.229 405.473 159.64C406.425 159.051 407.105 158.189 407.513 157.056C408.012 155.651 408.307 154.087 408.397 152.364C408.533 150.596 408.601 148.941 408.601 147.4C408.601 145.859 408.624 144.68 408.669 143.864C408.76 142.595 409.1 141.416 409.689 140.328C410.279 139.195 411.276 138.515 412.681 138.288C412.364 138.107 412.047 138.016 411.729 138.016C410.959 138.016 410.165 138.356 409.349 139.036C408.533 139.716 407.921 140.328 407.513 140.872C406.879 141.733 406.267 142.753 405.677 143.932C405.088 145.111 404.431 146.357 403.705 147.672L401.665 151.344C401.801 151.299 402.005 151.276 402.277 151.276C403.003 151.276 403.456 151.48 403.637 151.888C403.864 152.296 403.932 152.591 403.841 152.772C403.705 152.727 403.569 152.704 403.433 152.704C403.343 152.659 403.252 152.636 403.161 152.636C402.391 152.636 401.711 152.953 401.121 153.588C400.577 154.223 400.192 154.925 399.965 155.696C399.875 156.013 399.807 156.331 399.761 156.648C399.716 156.92 399.693 157.169 399.693 157.396C399.693 158.484 399.988 159.277 400.577 159.776C401.167 160.275 401.869 160.524 402.685 160.524ZM421.841 161.612C420.979 161.612 420.209 161.272 419.529 160.592C418.849 159.867 418.509 158.597 418.509 156.784C418.509 155.56 418.758 153.973 419.257 152.024C419.755 150.075 420.413 147.921 421.229 145.564C422.09 143.207 423.019 140.804 424.017 138.356C425.059 135.863 426.102 133.505 427.145 131.284C428.233 129.017 429.23 127 430.137 125.232C431.089 123.464 431.905 122.127 432.585 121.22C433.763 119.633 434.965 118.432 436.189 117.616C437.458 116.755 438.546 116.324 439.453 116.324C440.949 116.324 441.697 117.253 441.697 119.112C441.697 120.109 441.402 121.401 440.813 122.988C440.223 124.529 439.249 126.388 437.889 128.564C436.891 130.151 435.758 131.828 434.489 133.596C433.265 135.319 432.018 136.996 430.749 138.628C429.479 140.26 428.255 141.733 427.077 143.048C425.943 144.317 424.969 145.315 424.153 146.04C424.153 146.04 423.994 146.493 423.677 147.4C423.359 148.261 422.974 149.372 422.521 150.732C422.113 152.047 421.75 153.407 421.433 154.812C421.115 156.217 420.957 157.441 420.957 158.484C420.957 159.164 421.047 159.731 421.229 160.184C421.455 160.592 421.795 160.796 422.249 160.796C422.929 160.796 423.858 160.343 425.037 159.436C425.762 158.892 426.465 158.257 427.145 157.532C427.825 156.761 428.414 156.013 428.913 155.288C429.457 154.563 429.819 154.041 430.001 153.724C430.409 153.089 430.885 152.273 431.429 151.276C432.018 150.279 432.562 149.349 433.061 148.488C433.559 147.581 433.854 147.015 433.945 146.788C434.035 146.697 434.103 146.652 434.149 146.652C434.239 146.652 434.353 146.72 434.489 146.856C434.625 146.947 434.647 147.037 434.557 147.128C433.469 149.395 432.449 151.321 431.497 152.908C430.59 154.495 429.661 155.855 428.709 156.988C427.757 158.076 426.691 159.119 425.513 160.116C425.014 160.569 424.425 160.932 423.745 161.204C423.11 161.476 422.475 161.612 421.841 161.612ZM424.629 144.544C425.717 143.275 427.009 141.688 428.505 139.784C430.001 137.835 431.519 135.795 433.061 133.664C434.602 131.533 435.939 129.539 437.073 127.68C438.206 125.821 438.999 124.189 439.453 122.784C439.951 121.379 440.201 120.245 440.201 119.384C440.201 118.16 439.815 117.548 439.045 117.548C438.546 117.548 437.866 117.956 437.005 118.772C436.189 119.543 435.305 120.789 434.353 122.512C433.673 123.736 432.925 125.209 432.109 126.932C431.293 128.655 430.477 130.468 429.661 132.372C428.845 134.276 428.074 136.089 427.349 137.812C426.623 139.489 426.011 140.94 425.513 142.164C425.059 143.388 424.765 144.181 424.629 144.544ZM434.384 161.34C432.842 161.34 431.777 160.909 431.188 160.048C430.644 159.187 430.372 158.121 430.372 156.852C430.372 155.537 430.598 154.155 431.052 152.704C431.505 151.253 431.936 150.097 432.344 149.236C433.794 146.199 435.812 143.887 438.396 142.3C441.025 140.668 443.722 139.852 446.488 139.852C446.85 139.852 447.213 139.852 447.576 139.852C447.984 139.852 448.369 139.897 448.732 139.988C449.638 140.124 450.092 140.237 450.092 140.328C450.092 140.419 449.752 140.509 449.072 140.6C448.437 140.691 447.961 140.736 447.644 140.736C445.422 140.736 443.428 141.325 441.66 142.504C439.937 143.683 438.464 145.179 437.24 146.992C436.016 148.805 435.064 150.664 434.384 152.568C433.749 154.427 433.432 156.036 433.432 157.396C433.432 158.257 433.568 158.96 433.84 159.504C434.157 160.048 434.61 160.32 435.2 160.32C435.834 160.32 436.56 159.889 437.376 159.028C438.192 158.167 438.985 157.124 439.756 155.9C440.526 154.631 441.229 153.407 441.864 152.228C442.498 151.004 442.974 150.075 443.292 149.44L446.216 143.32C446.986 143.139 447.757 142.935 448.528 142.708C449.344 142.436 450.114 142.141 450.84 141.824C450.069 143.139 449.321 144.521 448.596 145.972C447.916 147.423 447.213 148.851 446.488 150.256C445.944 151.299 445.4 152.523 444.856 153.928C444.357 155.333 444.108 156.603 444.108 157.736V158.008C444.108 158.371 444.153 158.779 444.244 159.232C444.334 159.64 444.584 159.844 444.992 159.844C445.49 159.844 446.125 159.549 446.896 158.96C447.666 158.325 448.21 157.849 448.528 157.532C449.978 156.081 451.225 154.472 452.268 152.704C453.356 150.936 454.353 149.145 455.26 147.332C455.35 147.241 455.418 147.196 455.464 147.196C455.826 147.196 455.962 147.377 455.872 147.74C455.872 147.74 455.758 147.944 455.532 148.352C455.35 148.76 455.237 148.987 455.192 149.032C454.33 150.619 453.469 152.137 452.608 153.588C451.746 155.039 450.726 156.421 449.548 157.736C448.822 158.461 447.938 159.232 446.896 160.048C445.853 160.864 444.81 161.272 443.768 161.272C442.77 161.272 442.068 160.887 441.66 160.116C441.252 159.3 441.048 158.393 441.048 157.396C441.048 156.761 441.093 156.149 441.184 155.56C441.32 154.925 441.456 154.381 441.592 153.928C441.274 154.744 440.708 155.741 439.892 156.92C439.121 158.099 438.237 159.141 437.24 160.048C436.288 160.909 435.336 161.34 434.384 161.34ZM467.458 161.34C465.554 161.34 464.602 160.275 464.602 158.144C464.602 157.328 464.76 156.353 465.078 155.22C465.395 154.087 465.894 152.84 466.574 151.48C466.936 150.709 467.412 149.803 468.002 148.76C468.636 147.672 469.203 146.607 469.702 145.564C470.2 144.521 470.45 143.705 470.45 143.116C470.45 142.527 470.132 142.232 469.498 142.232C468.636 142.232 467.73 142.708 466.778 143.66C465.871 144.567 464.964 145.745 464.058 147.196C463.151 148.647 462.29 150.165 461.474 151.752C460.658 153.339 459.955 154.835 459.366 156.24C458.776 157.6 458.346 158.643 458.074 159.368C457.802 160.048 457.416 160.479 456.918 160.66C456.419 160.841 455.875 160.932 455.286 160.932C454.742 160.932 454.22 161.023 453.722 161.204C454.356 159.753 454.878 158.575 455.286 157.668C455.694 156.761 456.124 155.855 456.578 154.948C457.031 153.996 457.575 152.727 458.21 151.14C458.572 150.324 458.98 149.395 459.434 148.352C459.887 147.264 460.272 146.221 460.59 145.224C460.952 144.181 461.134 143.365 461.134 142.776C461.134 142.096 460.907 141.756 460.454 141.756C459.91 141.756 459.366 142.096 458.822 142.776C458.278 143.456 457.779 144.227 457.326 145.088C456.918 145.904 456.578 146.561 456.306 147.06C455.626 148.375 454.946 149.667 454.266 150.936C453.586 152.205 452.815 153.429 451.954 154.608H451.886C451.75 154.608 451.591 154.563 451.41 154.472C451.274 154.381 451.228 154.313 451.274 154.268C452.044 153.044 452.77 151.82 453.45 150.596C454.175 149.372 454.832 148.148 455.422 146.924C455.92 145.972 456.464 144.975 457.054 143.932C457.643 142.844 458.323 141.937 459.094 141.212C459.864 140.487 460.748 140.124 461.746 140.124C462.199 140.124 462.72 140.237 463.31 140.464C463.944 140.736 464.262 141.348 464.262 142.3C464.262 142.799 464.171 143.411 463.99 144.136C463.808 144.861 463.559 145.677 463.242 146.584C464.42 144.907 465.667 143.479 466.982 142.3C468.296 141.076 469.498 140.464 470.586 140.464C472.308 140.464 473.17 141.28 473.17 142.912C473.17 143.909 472.875 145.133 472.286 146.584C472.104 147.083 471.764 147.876 471.266 148.964C470.812 150.007 470.336 151.185 469.838 152.5C469.384 153.769 468.976 154.993 468.614 156.172C468.251 157.351 468.07 158.325 468.07 159.096C468.07 159.912 468.319 160.32 468.818 160.32C469.135 160.32 469.543 160.184 470.042 159.912C470.586 159.595 471.22 159.096 471.946 158.416C473.26 157.237 474.484 155.741 475.618 153.928C476.796 152.115 478.179 149.689 479.766 146.652C479.766 146.561 479.811 146.516 479.902 146.516C480.038 146.516 480.174 146.584 480.31 146.72C480.446 146.856 480.468 146.969 480.378 147.06C478.746 150.233 477.25 152.885 475.89 155.016C474.575 157.101 473.238 158.688 471.878 159.776C470.563 160.819 469.09 161.34 467.458 161.34ZM480.137 161.34C478.641 161.34 477.599 160.909 477.009 160.048C476.465 159.187 476.193 158.144 476.193 156.92C476.193 155.605 476.397 154.223 476.805 152.772C477.259 151.321 477.712 150.143 478.165 149.236C479.752 145.927 481.973 143.479 484.829 141.892C487.731 140.305 490.7 139.625 493.737 139.852C494.78 137.721 495.868 135.5 497.001 133.188C498.18 130.831 499.268 128.609 500.265 126.524C501.308 124.393 502.192 122.58 502.917 121.084C503.688 119.543 504.187 118.523 504.413 118.024C505.184 117.843 506.023 117.639 506.929 117.412C507.836 117.14 508.652 116.845 509.377 116.528C508.924 117.299 508.199 118.5 507.201 120.132C506.249 121.764 505.139 123.691 503.869 125.912C502.645 128.088 501.353 130.423 499.993 132.916C498.633 135.409 497.319 137.925 496.049 140.464V140.6C496.049 140.781 495.936 140.94 495.709 141.076C494.576 143.388 493.533 145.609 492.581 147.74C491.675 149.871 490.927 151.82 490.337 153.588C489.793 155.311 489.521 156.739 489.521 157.872C489.521 159.141 489.952 159.776 490.813 159.776C491.312 159.776 491.879 159.572 492.513 159.164C493.148 158.756 493.76 158.257 494.349 157.668C495.8 156.217 497.047 154.585 498.089 152.772C499.177 150.959 500.197 149.145 501.149 147.332C501.149 147.241 501.195 147.196 501.285 147.196C501.603 147.196 501.761 147.377 501.761 147.74C501.761 147.74 501.648 147.944 501.421 148.352C501.195 148.76 501.059 148.987 501.013 149.032C500.197 150.619 499.359 152.137 498.497 153.588C497.636 155.039 496.593 156.421 495.369 157.736C494.689 158.461 493.805 159.232 492.717 160.048C491.675 160.864 490.632 161.272 489.589 161.272C488.547 161.272 487.821 160.864 487.413 160.048C487.051 159.232 486.869 158.325 486.869 157.328C486.869 156.693 486.915 156.081 487.005 155.492C487.096 154.903 487.209 154.381 487.345 153.928C487.028 154.744 486.461 155.741 485.645 156.92C484.875 158.099 483.991 159.141 482.993 160.048C482.041 160.909 481.089 161.34 480.137 161.34ZM480.953 160.32C481.588 160.32 482.291 159.889 483.061 159.028C483.877 158.167 484.671 157.124 485.441 155.9C486.257 154.631 486.983 153.407 487.617 152.228C488.252 151.004 488.728 150.075 489.045 149.44L493.329 140.736C491.108 140.781 489.113 141.393 487.345 142.572C485.623 143.751 484.149 145.247 482.925 147.06C481.701 148.828 480.772 150.641 480.137 152.5C479.503 154.359 479.185 155.968 479.185 157.328C479.185 158.235 479.321 158.96 479.593 159.504C479.911 160.048 480.364 160.32 480.953 160.32Z" fill="#CA6028"/>
</svg>
