<svg width="722" height="226" viewBox="0 0 722 226" fill="none" xmlns="http://www.w3.org/2000/svg">
<path d="M67.2 89.388C67.48 99.076 68.264 105.124 69.552 107.532C70.504 109.324 70.448 110.668 69.384 111.564C68.376 112.46 66.332 112.908 63.252 112.908H44.1C42.084 112.908 40.236 112.236 38.556 110.892C36.876 109.492 35.504 107.784 34.44 105.768C33.432 103.752 32.452 101.624 31.5 99.384C30.548 97.144 29.736 95.1 29.064 93.252C28.392 91.348 27.664 89.92 26.88 88.968C26.096 87.96 25.284 87.68 24.444 88.128C24.052 88.352 23.772 88.688 23.604 89.136C23.492 89.528 23.492 90.06 23.604 90.732C23.716 91.348 23.856 91.964 24.024 92.58C24.192 93.196 24.444 93.952 24.78 94.848C25.172 95.688 25.508 96.416 25.788 97.032C26.068 97.592 26.432 98.32 26.88 99.216C27.328 100.112 27.636 100.756 27.804 101.148C30.604 107.196 32.032 110.78 32.088 111.9C32.088 112.572 31.836 112.908 31.332 112.908H7.728C4.648 112.908 2.576 112.46 1.512 111.564C0.504 110.668 0.476 109.324 1.428 107.532C1.988 106.468 2.464 104.424 2.856 101.4C3.248 98.376 3.5 95.632 3.612 93.168L3.78 89.388V76.956C3.5 67.268 2.716 61.22 1.428 58.812C0.476 57.02 0.504 55.676 1.512 54.78C2.576 53.884 4.648 53.436 7.728 53.436C15.344 53.324 20.44 53.324 23.016 53.436C24.024 53.492 24.864 53.576 25.536 53.688C26.264 53.8 27.132 54.108 28.14 54.612C29.204 55.06 30.072 55.704 30.744 56.544C31.416 57.328 32.032 58.532 32.592 60.156C33.208 61.78 33.628 63.684 33.852 65.868C34.188 69.396 35.168 73.148 36.792 77.124C38.472 81.044 40.236 84.096 42.084 86.28C43.932 88.408 45.248 89.024 46.032 88.128C46.312 87.792 46.452 87.54 46.452 87.372C46.508 87.148 46.396 86.896 46.116 86.616C45.892 86.336 45.612 86.056 45.276 85.776C44.94 85.44 44.492 84.964 43.932 84.348C43.428 83.732 42.952 83.06 42.504 82.332C40.432 78.916 39.032 74.968 38.304 70.488C37.576 65.952 37.8 62.004 38.976 58.644C40.152 55.284 42.224 53.604 45.192 53.604H45.276L63.252 53.436C66.332 53.436 68.376 53.884 69.384 54.78C70.448 55.676 70.504 57.02 69.552 58.812C68.992 59.876 68.516 61.92 68.124 64.944C67.732 67.968 67.48 70.712 67.368 73.176L67.2 76.956V89.388ZM103.721 93.924C103.777 94.764 103.833 95.884 103.889 97.284C104.001 98.628 104.253 100.644 104.645 103.332C105.093 105.964 105.625 107.7 106.241 108.54C107.977 111.004 106.605 112.432 102.125 112.824C101.341 112.88 100.473 112.908 99.521 112.908H83.057C78.073 112.908 75.581 112.068 75.581 110.388C75.581 109.828 75.833 109.212 76.337 108.54C76.953 107.7 77.457 106.048 77.849 103.584C78.241 101.12 78.493 98.908 78.605 96.948L78.773 93.924V83.844C78.773 82.948 78.717 81.828 78.605 80.484C78.549 79.14 78.297 77.152 77.849 74.52C77.457 71.832 76.953 70.068 76.337 69.228C74.601 66.764 75.945 65.336 80.369 64.944C81.153 64.888 82.049 64.86 83.057 64.86H99.521C104.505 64.86 106.969 65.7 106.913 67.38C106.913 67.884 106.689 68.5 106.241 69.228C105.625 70.068 105.093 71.72 104.645 74.184C104.253 76.592 104.001 78.804 103.889 80.82L103.721 83.844V93.924ZM99.605 58.392C97.309 60.128 94.509 60.996 91.205 60.996C87.957 60.996 85.157 60.128 82.805 58.392C80.509 56.656 79.361 54.556 79.361 52.092C79.361 49.628 80.509 47.528 82.805 45.792C85.157 44.056 87.957 43.188 91.205 43.188C94.509 43.188 97.309 44.056 99.605 45.792C101.957 47.528 103.133 49.628 103.133 52.092C103.133 54.556 101.957 56.656 99.605 58.392ZM143.031 97.872C144.375 98.6 145.775 99.104 147.231 99.384C148.743 99.608 150.143 99.636 151.431 99.468C152.775 99.244 154.091 98.964 155.379 98.628C156.723 98.292 157.871 97.9 158.823 97.452C159.831 96.948 160.755 96.556 161.595 96.276C162.435 95.94 163.023 95.716 163.359 95.604C163.751 95.436 163.975 95.52 164.031 95.856C164.031 96.248 163.947 96.836 163.779 97.62C163.611 98.404 163.275 99.44 162.771 100.728C162.323 101.96 161.735 103.22 161.007 104.508C160.279 105.796 159.299 107.14 158.067 108.54C156.835 109.884 155.435 111.088 153.867 112.152C152.355 113.16 150.451 114 148.155 114.672C145.915 115.344 143.507 115.68 140.931 115.68C136.283 115.68 132.167 115.204 128.583 114.252C124.999 113.3 122.115 112.068 119.931 110.556C117.803 109.044 116.067 107.252 114.723 105.18C113.379 103.052 112.455 100.952 111.951 98.88C111.447 96.808 111.195 94.624 111.195 92.328C111.195 86.952 112.175 82.22 114.135 78.132C116.095 74.044 119.147 70.796 123.291 68.388C127.435 65.924 132.419 64.692 138.243 64.692C142.331 64.692 145.915 65.14 148.995 66.036C152.075 66.932 154.483 68.08 156.219 69.48C157.955 70.824 159.355 72.476 160.419 74.436C161.539 76.396 162.267 78.272 162.603 80.064C162.939 81.8 163.107 83.676 163.107 85.692C163.107 89.164 161.455 91.684 158.151 93.252C154.903 94.764 151.627 94.904 148.323 93.672C145.075 92.44 143.451 90.172 143.451 86.868C143.451 83.004 143.199 80.4 142.695 79.056C142.247 77.712 141.407 77.04 140.175 77.04C139.335 77.04 138.551 77.572 137.823 78.636C137.151 79.7 136.675 81.1 136.395 82.836C136.171 84.516 136.171 86.308 136.395 88.212C136.619 90.06 137.291 91.88 138.411 93.672C139.587 95.464 141.127 96.864 143.031 97.872ZM182.231 68.976C186.431 66.232 190.911 64.86 195.671 64.86C200.487 64.86 204.995 66.232 209.195 68.976C213.395 71.72 216.671 75.248 219.023 79.56C221.431 83.872 222.635 88.324 222.635 92.916C222.635 97.452 221.431 101.456 219.023 104.928C216.615 108.344 213.367 110.948 209.279 112.74C205.247 114.476 200.739 115.344 195.755 115.344C190.771 115.344 186.235 114.476 182.147 112.74C178.115 110.948 174.867 108.344 172.403 104.928C169.995 101.456 168.791 97.452 168.791 92.916C168.791 88.324 169.967 83.872 172.319 79.56C174.727 75.248 178.031 71.72 182.231 68.976ZM193.655 95.352C194.215 96.808 194.887 97.536 195.671 97.536C196.511 97.536 197.211 96.808 197.771 95.352C198.331 93.896 198.611 92.16 198.611 90.144C198.611 88.072 198.331 86.308 197.771 84.852C197.211 83.396 196.511 82.668 195.671 82.668C194.887 82.668 194.215 83.396 193.655 84.852C193.095 86.308 192.815 88.072 192.815 90.144C192.815 92.16 193.095 93.896 193.655 95.352ZM255.688 89.388C255.744 90.452 255.8 91.824 255.856 93.504C255.968 95.184 256.22 97.676 256.612 100.98C257.06 104.228 257.592 106.412 258.208 107.532C259.216 109.324 259.16 110.668 258.04 111.564C256.92 112.46 254.736 112.908 251.488 112.908H235.024C231.72 112.908 229.508 112.46 228.388 111.564C227.324 110.668 227.296 109.324 228.304 107.532C228.92 106.412 229.424 104.368 229.816 101.4C230.208 98.376 230.46 95.604 230.572 93.084L230.74 89.388V76.956C230.74 75.836 230.684 74.436 230.572 72.756C230.516 71.076 230.264 68.612 229.816 65.364C229.424 62.06 228.92 59.876 228.304 58.812C227.296 56.964 227.324 55.62 228.388 54.78C229.508 53.884 231.72 53.436 235.024 53.436H251.488C254.736 53.436 256.92 53.884 258.04 54.78C259.16 55.62 259.216 56.964 258.208 58.812C257.592 59.876 257.06 61.92 256.612 64.944C256.22 67.968 255.968 70.712 255.856 73.176L255.688 76.956V89.388ZM307.104 98.628C309.12 98.404 311.584 97.396 314.496 95.604C315.392 95.1 315.84 95.072 315.84 95.52C315.84 95.632 315.812 95.744 315.756 95.856C315.644 96.416 315.476 97.06 315.252 97.788C315.084 98.46 314.72 99.496 314.16 100.896C313.656 102.24 313.04 103.528 312.312 104.76C311.584 105.936 310.604 107.224 309.372 108.624C308.14 110.024 306.768 111.228 305.256 112.236C303.744 113.188 301.896 114 299.712 114.672C297.528 115.344 295.176 115.68 292.656 115.68C272.832 115.68 262.92 107.896 262.92 92.328C262.92 83.704 265.328 76.956 270.144 72.084C275.016 67.156 281.624 64.692 289.968 64.692C294 64.692 297.668 65.28 300.972 66.456C304.276 67.632 306.908 69.2 308.868 71.16C310.884 73.12 312.284 75.388 313.068 77.964C313.908 80.484 314.02 83.032 313.404 85.608C312.9 87.624 312.088 89.388 310.968 90.9C309.848 92.356 308.532 93.476 307.02 94.26C305.564 94.988 303.94 95.604 302.148 96.108C300.412 96.556 298.648 96.78 296.856 96.78C295.064 96.724 293.328 96.64 291.648 96.528C293.216 97.928 295.428 98.768 298.284 99.048C301.196 99.272 304.136 99.132 307.104 98.628ZM288.288 89.136C288.344 89.416 288.428 89.864 288.54 90.48C291.9 90.536 293.776 89.5 294.168 87.372C294.616 84.852 294.56 82.808 294 81.24C293.496 79.672 292.796 78.888 291.9 78.888C291.9 78.888 291.872 78.888 291.816 78.888C291.536 78.888 291.312 78.916 291.144 78.972C290.976 78.972 290.696 79.028 290.304 79.14C289.968 79.252 289.716 79.448 289.548 79.728C289.38 79.952 289.128 80.316 288.792 80.82C288.512 81.268 288.344 81.884 288.288 82.668C288.232 83.396 288.148 84.292 288.036 85.356C287.98 86.42 288.064 87.68 288.288 89.136ZM419.197 81.492C419.869 81.212 420.401 81.296 420.793 81.744C421.241 82.136 421.493 82.808 421.549 83.76C421.661 84.712 421.717 85.636 421.717 86.532C421.717 87.428 421.633 88.38 421.465 89.388C421.409 90.06 421.129 90.62 420.625 91.068C420.121 91.46 419.561 91.628 418.945 91.572C417.377 91.46 415.725 91.376 413.989 91.32C415.669 106.888 414.913 114.672 411.721 114.672H395.677C395.901 114.392 396.181 114.028 396.517 113.58C396.909 113.132 397.553 112.264 398.449 110.976C399.401 109.632 400.185 108.344 400.801 107.112C401.473 105.88 402.005 104.536 402.397 103.08C402.845 101.624 402.957 100.364 402.733 99.3C402.453 98.068 401.893 98.068 401.053 99.3C400.829 99.692 400.409 100.448 399.793 101.568C396.825 106.832 394.025 110.388 391.393 112.236C389.153 113.86 386.773 114.672 384.253 114.672C382.125 114.672 380.277 114.616 378.709 114.504C377.197 114.448 375.489 114.308 373.585 114.084C371.681 113.86 370.057 113.524 368.713 113.076C367.425 112.628 366.109 112.04 364.765 111.312C363.421 110.528 362.329 109.604 361.489 108.54C360.705 107.42 360.061 106.076 359.557 104.508C359.053 102.884 358.801 101.064 358.801 99.048C358.801 96.696 359.249 94.624 360.145 92.832C361.097 90.984 362.245 89.528 363.589 88.464C364.989 87.4 366.585 86.532 368.377 85.86C370.169 85.188 371.821 84.74 373.333 84.516C374.901 84.236 376.413 84.096 377.869 84.096V81.912C377.645 81.968 377.365 82.024 377.029 82.08C376.693 82.08 376.049 82.052 375.097 81.996C374.145 81.94 373.221 81.8 372.325 81.576C371.429 81.352 370.449 80.96 369.385 80.4C368.321 79.84 367.397 79.112 366.613 78.216C365.829 77.32 365.157 76.088 364.597 74.52C364.093 72.952 363.841 71.16 363.841 69.144C363.841 66.288 364.905 63.796 367.033 61.668C369.161 59.54 371.961 57.972 375.433 56.964C378.905 55.956 382.657 55.34 386.689 55.116C390.721 54.892 394.809 55.172 398.953 55.956C403.097 56.74 406.765 57.916 409.957 59.484L400.633 73.176C400.521 73.12 400.269 72.924 399.877 72.588C399.485 72.196 399.065 71.832 398.617 71.496C398.169 71.16 397.553 70.796 396.769 70.404C396.041 70.012 395.257 69.704 394.417 69.48C393.633 69.256 392.653 69.144 391.477 69.144C390.357 69.144 389.209 69.312 388.033 69.648C385.345 70.376 384.617 72.112 385.849 74.856C386.969 77.208 388.817 79.112 391.393 80.568C393.409 81.688 395.145 81.996 396.601 81.492C397.497 81.156 398.169 80.764 398.617 80.316C399.065 79.868 399.317 79.42 399.373 78.972C399.429 78.468 399.429 77.992 399.373 77.544C399.317 77.04 399.233 76.62 399.121 76.284C399.009 75.948 399.009 75.696 399.121 75.528C399.233 75.36 399.485 75.332 399.877 75.444C400.437 75.556 401.389 75.528 402.733 75.36C404.077 75.192 405.365 75.024 406.597 74.856C407.885 74.632 409.033 74.548 410.041 74.604C411.049 74.66 411.609 74.94 411.721 75.444C411.945 76.564 412.309 78.804 412.813 82.164C416.005 82.108 418.133 81.884 419.197 81.492ZM387.277 98.964C388.453 99.188 389.349 98.88 389.965 98.04C390.637 97.144 391.001 96.22 391.057 95.268L391.141 93.84C388.733 93.896 386.969 94.68 385.849 96.192C384.953 97.424 385.149 98.292 386.437 98.796C386.661 98.908 386.941 98.964 387.277 98.964ZM517.109 81.156H517.193C517.977 80.316 518.761 80.568 519.545 81.912C520.329 83.256 521.029 85.384 521.645 88.296C522.261 91.208 522.765 93.896 523.157 96.36C523.549 98.768 523.885 101.26 524.165 103.836C524.333 104.956 524.137 106.048 523.577 107.112C523.073 108.12 522.289 108.876 521.225 109.38C515.625 112.068 507.393 113.412 496.529 113.412C489.809 113.412 483.901 113.3 478.805 113.076C473.709 112.852 470.293 112.656 468.557 112.488L465.869 112.152C465.813 111.816 465.757 111.368 465.701 110.808C465.645 110.248 465.561 109.128 465.449 107.448C465.337 105.712 465.309 104.06 465.365 102.492C465.477 100.868 465.729 99.048 466.121 97.032C466.569 94.96 467.185 93.112 467.969 91.488C468.753 89.864 469.901 88.38 471.413 87.036C472.925 85.636 474.689 84.656 476.705 84.096C482.529 82.416 486.953 80.736 489.977 79.056C493.001 77.376 494.233 75.892 493.673 74.604C493.225 73.876 492.301 73.596 490.901 73.764C489.557 73.876 487.905 74.296 485.945 75.024C483.985 75.696 482.109 76.424 480.317 77.208C478.525 77.992 476.985 78.692 475.697 79.308L473.765 80.316C473.709 80.204 473.597 80.064 473.429 79.896C473.317 79.728 473.009 79.364 472.505 78.804C472.057 78.244 471.637 77.684 471.245 77.124C470.909 76.508 470.433 75.724 469.817 74.772C469.257 73.82 468.781 72.924 468.389 72.084C467.997 71.188 467.549 70.18 467.045 69.06C466.597 67.884 466.289 66.764 466.121 65.7C466.009 64.636 465.897 63.488 465.785 62.256C465.673 60.968 465.785 59.764 466.121 58.644C466.513 56.964 469.565 55.564 475.277 54.444C480.989 53.324 487.037 52.624 493.421 52.344C499.861 52.008 505.545 51.924 510.473 52.092C512.937 52.148 515.093 52.736 516.941 53.856C518.845 54.92 520.161 56.32 520.889 58.056C521.673 59.736 522.009 61.556 521.897 63.516C521.785 65.476 521.029 67.492 519.629 69.564C518.229 71.58 516.297 73.372 513.833 74.94C513.273 75.276 512.461 75.78 511.397 76.452C507.757 78.748 505.097 80.428 503.417 81.492C501.793 82.556 500.001 83.788 498.041 85.188C496.081 86.588 494.793 87.68 494.177 88.464C493.561 89.248 493.393 89.892 493.673 90.396C494.233 91.348 496.137 91.348 499.385 90.396C502.689 89.444 506.105 88.044 509.633 86.196C513.217 84.292 515.709 82.612 517.109 81.156ZM583.205 100.644C583.429 102.324 583.737 103.584 584.129 104.424C584.521 105.208 584.941 105.6 585.389 105.6C585.837 105.544 586.285 105.404 586.733 105.18C587.237 104.9 587.685 104.62 588.077 104.34C588.469 104.004 588.805 103.892 589.085 104.004C589.365 104.116 589.505 104.564 589.505 105.348C589.561 107.196 589.113 108.736 588.161 109.968C587.209 111.144 585.361 112.124 582.617 112.908C579.873 113.636 576.233 114 571.697 114C569.737 114 567.973 113.888 566.405 113.664C564.837 113.384 563.577 113.048 562.625 112.656C561.729 112.264 560.945 111.816 560.273 111.312C559.601 110.808 559.097 110.304 558.761 109.8C558.481 109.296 558.257 108.848 558.089 108.456C557.977 108.064 557.921 107.728 557.921 107.448V107.112V99.804H557.249C557.361 107.196 554.925 112.348 549.941 115.26C546.245 117.444 542.297 117.836 538.097 116.436C534.177 115.092 531.657 112.684 530.537 109.212C530.313 108.54 530.173 107.84 530.117 107.112C529.949 105.32 530.005 103.668 530.285 102.156C530.621 100.588 531.041 99.244 531.545 98.124C532.105 96.948 532.917 95.828 533.981 94.764C535.045 93.7 535.997 92.86 536.837 92.244C537.733 91.572 538.909 90.872 540.365 90.144C541.877 89.36 543.025 88.8 543.809 88.464C544.649 88.128 545.797 87.652 547.253 87.036C547.813 86.812 548.233 86.644 548.513 86.532C549.913 85.972 551.481 85.384 553.217 84.768C555.009 84.152 556.465 83.648 557.585 83.256C558.761 82.864 559.853 82.472 560.861 82.08C561.925 81.632 562.653 81.24 563.045 80.904C563.493 80.512 563.605 80.148 563.381 79.812C562.653 78.412 555.625 80.932 542.297 87.372C540.897 87.988 539.497 88.324 538.097 88.38C536.697 88.436 535.409 88.24 534.233 87.792C533.113 87.344 532.133 86.672 531.293 85.776C530.453 84.88 529.865 83.872 529.529 82.752C529.249 81.632 529.277 80.372 529.613 78.972C530.005 77.516 530.761 76.116 531.881 74.772C533.169 73.092 535.101 71.692 537.677 70.572C540.253 69.452 542.885 68.668 545.573 68.22C548.317 67.772 550.445 67.464 551.957 67.296C553.525 67.128 554.645 67.044 555.317 67.044C559.293 67.044 562.821 67.38 565.901 68.052C568.981 68.724 571.473 69.62 573.377 70.74C575.281 71.804 576.905 73.176 578.249 74.856C579.593 76.48 580.545 78.104 581.105 79.728C581.721 81.352 582.169 83.2 582.449 85.272C582.785 87.288 582.953 89.108 582.953 90.732C582.953 92.356 582.953 94.148 582.953 96.108C583.009 98.012 583.093 99.524 583.205 100.644ZM552.209 100.476C552.881 100.476 553.413 100.196 553.805 99.636C554.197 99.076 554.421 98.516 554.477 97.956V97.116C552.629 97.116 551.453 97.704 550.949 98.88C550.613 99.776 550.921 100.28 551.873 100.392C551.985 100.448 552.097 100.476 552.209 100.476ZM625.522 97.872C626.866 98.6 628.266 99.104 629.722 99.384C631.234 99.608 632.634 99.636 633.922 99.468C635.266 99.244 636.582 98.964 637.87 98.628C639.214 98.292 640.362 97.9 641.314 97.452C642.322 96.948 643.246 96.556 644.086 96.276C644.926 95.94 645.514 95.716 645.85 95.604C646.242 95.436 646.466 95.52 646.522 95.856C646.522 96.248 646.438 96.836 646.27 97.62C646.102 98.404 645.766 99.44 645.262 100.728C644.814 101.96 644.226 103.22 643.498 104.508C642.77 105.796 641.79 107.14 640.558 108.54C639.326 109.884 637.926 111.088 636.358 112.152C634.846 113.16 632.942 114 630.646 114.672C628.406 115.344 625.998 115.68 623.422 115.68C618.774 115.68 614.658 115.204 611.074 114.252C607.49 113.3 604.606 112.068 602.422 110.556C600.294 109.044 598.558 107.252 597.214 105.18C595.87 103.052 594.946 100.952 594.442 98.88C593.938 96.808 593.686 94.624 593.686 92.328C593.686 86.952 594.666 82.22 596.626 78.132C598.586 74.044 601.638 70.796 605.782 68.388C609.926 65.924 614.91 64.692 620.734 64.692C624.822 64.692 628.406 65.14 631.486 66.036C634.566 66.932 636.974 68.08 638.71 69.48C640.446 70.824 641.846 72.476 642.91 74.436C644.03 76.396 644.758 78.272 645.094 80.064C645.43 81.8 645.598 83.676 645.598 85.692C645.598 89.164 643.946 91.684 640.642 93.252C637.394 94.764 634.118 94.904 630.814 93.672C627.566 92.44 625.942 90.172 625.942 86.868C625.942 83.004 625.69 80.4 625.186 79.056C624.738 77.712 623.898 77.04 622.666 77.04C621.826 77.04 621.042 77.572 620.314 78.636C619.642 79.7 619.166 81.1 618.886 82.836C618.662 84.516 618.662 86.308 618.886 88.212C619.11 90.06 619.782 91.88 620.902 93.672C622.078 95.464 623.618 96.864 625.522 97.872ZM719.911 107.532C720.919 109.324 720.863 110.668 719.743 111.564C718.623 112.46 716.411 112.908 713.107 112.908H696.727C693.423 112.908 691.211 112.46 690.091 111.564C688.971 110.668 688.943 109.324 690.007 107.532C690.567 106.412 691.043 104.368 691.435 101.4C691.883 98.376 692.163 95.604 692.275 93.084L692.443 89.388C692.331 87.036 691.715 85.356 690.595 84.348C689.531 83.34 687.907 82.948 685.723 83.172C684.883 83.228 684.127 83.396 683.455 83.676C682.783 83.956 682.223 84.292 681.775 84.684C681.383 85.02 681.047 85.412 680.767 85.86C680.487 86.308 680.263 86.728 680.095 87.12C679.983 87.512 679.871 87.876 679.759 88.212C679.703 88.548 679.675 88.828 679.675 89.052V89.388C679.731 90.452 679.787 91.824 679.843 93.504C679.955 95.184 680.207 97.676 680.599 100.98C681.047 104.228 681.579 106.412 682.195 107.532C683.203 109.324 683.147 110.668 682.027 111.564C680.907 112.46 678.723 112.908 675.475 112.908H659.011C655.707 112.908 653.495 112.46 652.375 111.564C651.311 110.668 651.283 109.324 652.291 107.532C652.907 106.412 653.411 104.368 653.803 101.4C654.195 98.376 654.447 95.604 654.559 93.084L654.727 89.388V76.956C654.727 75.836 654.671 74.436 654.559 72.756C654.503 71.076 654.251 68.612 653.803 65.364C653.411 62.06 652.907 59.876 652.291 58.812C651.283 56.964 651.311 55.62 652.375 54.78C653.495 53.884 655.707 53.436 659.011 53.436H675.475C678.723 53.436 680.907 53.884 682.027 54.78C683.147 55.62 683.203 56.964 682.195 58.812C681.075 60.772 680.291 65.868 679.843 74.1C684.323 67.324 691.127 63.936 700.255 63.936C702.439 63.936 704.427 64.244 706.219 64.86C708.067 65.42 709.579 66.204 710.755 67.212C711.931 68.164 712.967 69.284 713.863 70.572C714.759 71.804 715.431 73.12 715.879 74.52C716.383 75.92 716.775 77.348 717.055 78.804C717.335 80.204 717.503 81.548 717.559 82.836C717.615 84.068 717.615 85.188 717.559 86.196C717.559 87.148 717.531 87.932 717.475 88.548L717.391 89.388V91.992C717.615 99.832 718.455 105.012 719.911 107.532Z" fill="#CA6028"/>
<path d="M254.944 37.656C257.268 36.704 257.52 34.716 257.52 31.496V13.856C257.52 12.316 257.464 11.308 257.296 10.16H261.86C261.692 11.308 261.636 12.316 261.636 13.856V31.496C261.636 36.368 258.276 37.292 255.056 38.02L254.944 37.656ZM269.846 32.448C267.382 32.448 265.87 30.768 265.87 27.688V21.304C265.87 19.82 265.814 18.784 265.646 17.608H269.622C269.454 18.784 269.398 19.82 269.398 21.304V27.716C269.398 29.816 270.21 30.88 271.694 30.88C273.066 30.88 274.438 29.9 275.334 28.36V28.304V21.304C275.334 19.82 275.278 18.784 275.11 17.608H279.058C278.89 18.784 278.834 19.82 278.834 21.304V28.304C278.834 29.788 278.89 30.824 279.058 32H275.11C275.25 31.076 275.306 30.236 275.334 29.228C274.102 31.16 272.002 32.448 269.846 32.448ZM292.124 32C292.292 30.824 292.348 29.788 292.348 28.304V21.892C292.348 19.764 291.508 18.728 290.024 18.728C288.652 18.728 287.252 19.708 286.356 21.276V21.304V28.304C286.356 29.788 286.412 30.824 286.58 32H282.632C282.8 30.824 282.856 29.788 282.856 28.304V21.304C282.856 19.82 282.8 18.784 282.632 17.608H286.58C286.44 18.532 286.384 19.372 286.356 20.436C287.588 18.476 289.716 17.16 291.872 17.16C294.336 17.16 295.848 18.84 295.848 21.892V28.304C295.848 29.788 295.904 30.824 296.072 32H292.124ZM305.998 32.476C302.106 32.476 298.662 29.284 298.662 24.692C298.662 20.1 302.162 17.16 306.054 17.16C309.582 17.16 312.634 19.54 312.746 23.292H302.302V23.32C302.302 27.072 304.262 30.656 307.594 30.656C309.974 30.656 311.99 28.892 312.718 26.176L313.138 26.26C312.13 30.236 309.218 32.476 305.998 32.476ZM302.33 22.704H309.05C308.966 19.372 307.874 17.692 305.97 17.692C303.898 17.692 302.47 19.624 302.33 22.704ZM323.901 32C324.069 30.824 324.125 29.816 324.125 28.304V12.904C323.313 14.332 321.577 15.536 320.121 16.096L320.037 14.892C321.913 14.64 324.265 12.904 324.881 10.16H328.241V28.304C328.241 29.816 328.297 30.852 328.465 32H323.901ZM334.783 32C334.951 30.824 335.007 29.816 335.007 28.304V12.904C334.195 14.332 332.459 15.536 331.003 16.096L330.919 14.892C332.795 14.64 335.147 12.904 335.763 10.16H339.123V28.304C339.123 29.816 339.179 30.852 339.347 32H334.783ZM347.847 32.476C345.327 32.476 343.815 30.74 343.815 27.912V18.252H341.603V17.608H341.939C344.431 17.608 344.571 15.76 344.571 11.868H348.099C348.099 14.388 347.259 16.852 344.095 17.608H352.075V18.252H347.315V27.548C347.315 29.48 348.099 30.656 349.387 30.656C350.983 30.656 352.019 29.06 352.383 26.092H352.831C352.355 30.264 350.647 32.476 347.847 32.476ZM364.393 32C364.561 30.824 364.617 29.788 364.617 28.304V21.892C364.617 19.764 363.777 18.728 362.293 18.728C360.921 18.728 359.521 19.708 358.625 21.276V28.304C358.625 29.788 358.681 30.824 358.849 32H354.901C355.069 30.824 355.125 29.788 355.125 28.304V13.576C355.125 12.092 355.069 11.056 354.901 9.88H358.849C358.681 11.056 358.625 12.092 358.625 13.576V20.464C359.857 18.476 361.985 17.16 364.141 17.16C366.605 17.16 368.117 18.84 368.117 21.892V28.304C368.117 29.788 368.173 30.824 368.341 32H364.393ZM370.029 35.78C371.177 35.08 372.101 33.792 372.213 32.784L370.085 31.384L371.821 28.612L374.621 30.32C374.173 32.476 372.493 35.136 370.337 36.284L370.029 35.78ZM388.004 31.328C388.004 24.356 398.784 23.348 398.784 15.732C398.784 12.092 396.348 10.58 394.024 10.58C391.784 10.58 389.684 11.924 389.684 14.276C389.684 15.648 390.58 16.628 391.588 17.384C392.316 17.972 392.596 18.532 392.596 19.092C392.596 19.932 391.924 20.66 390.944 20.772C388.816 19.456 387.836 17.58 387.836 15.76C387.836 12.708 390.608 9.796 395.2 9.796C399.064 9.796 403.04 11.896 403.04 16.152C403.04 23.572 389.964 24.832 388.872 29.872H394.052C398.028 29.872 401.332 29.452 403.516 28.696L403.04 32H388.004V31.328ZM415.434 32.476C409.47 32.476 405.802 27.184 405.802 21.136C405.802 15.06 409.47 9.824 415.434 9.824C421.426 9.824 425.066 15.06 425.066 21.136C425.066 27.212 421.398 32.476 415.434 32.476ZM410.142 21.136C410.142 27.576 412.27 31.832 415.434 31.832C418.598 31.832 420.726 27.604 420.726 21.108C420.726 14.64 418.598 10.44 415.434 10.44C412.27 10.44 410.142 14.668 410.142 21.136ZM427.653 31.328C427.653 24.356 438.433 23.348 438.433 15.732C438.433 12.092 435.997 10.58 433.673 10.58C431.433 10.58 429.333 11.924 429.333 14.276C429.333 15.648 430.229 16.628 431.237 17.384C431.965 17.972 432.245 18.532 432.245 19.092C432.245 19.932 431.573 20.66 430.593 20.772C428.465 19.456 427.485 17.58 427.485 15.76C427.485 12.708 430.257 9.796 434.849 9.796C438.713 9.796 442.689 11.896 442.689 16.152C442.689 23.572 429.613 24.832 428.521 29.872H433.701C437.677 29.872 440.981 29.452 443.165 28.696L442.689 32H427.653V31.328ZM455.026 32.476C448.978 32.476 445.45 27.576 445.45 21.192C445.45 14.276 449.734 9.824 455.25 9.824C458.078 9.824 460.906 10.776 462.446 12.036C462.53 13.212 461.97 14.22 460.766 14.22C459.674 14.22 459.058 13.52 458.526 12.708C457.742 11.672 456.958 10.384 455.054 10.384C451.274 10.384 449.706 16.04 449.706 21.248V22.032C451.106 19.176 453.71 17.776 456.286 17.776C460.374 17.776 463.118 20.968 463.118 24.916C463.118 28.892 460.346 32.476 455.026 32.476ZM449.762 23.236C450.098 28.416 451.806 31.916 454.746 31.916C457.434 31.916 458.918 29.144 458.918 25.588C458.918 21.584 457.294 19.204 454.606 19.204C452.618 19.204 450.602 20.576 449.762 23.236Z" fill="#CA6028"/>
<path d="M196.48 202.08C193.6 202.08 190.827 201.653 188.16 200.8C185.493 200 183.147 198.773 181.12 197.12C179.947 197.333 178.72 197.493 177.44 197.6C176.16 197.707 174.827 197.76 173.44 197.76C172.267 197.76 170.933 197.6 169.44 197.28C167.947 196.96 166.8 196.427 166 195.68C165.893 195.573 165.84 195.467 165.84 195.36C165.84 195.147 165.92 194.987 166.08 194.88C166.293 194.827 166.48 194.88 166.64 195.04C167.28 195.573 168.267 195.947 169.6 196.16C170.933 196.427 172.213 196.56 173.44 196.56C175.787 196.56 177.947 196.4 179.92 196.08C178.16 194.373 176.773 192.32 175.76 189.92C174.747 187.52 174.293 184.773 174.4 181.68C171.627 180.613 169.573 179.067 168.24 177.04C166.907 175.013 166.24 172.853 166.24 170.56C166.24 168.32 166.853 166.187 168.08 164.16C169.36 162.08 171.2 160.373 173.6 159.04C176.053 157.707 179.04 157.04 182.56 157.04C184.053 157.04 185.68 157.2 187.44 157.52C190.587 155.12 193.76 153.36 196.96 152.24C200.16 151.12 202.773 150.56 204.8 150.56C208.107 150.56 210.533 151.387 212.08 153.04C213.627 154.64 214.4 156.667 214.4 159.12C214.4 161.893 213.467 164.907 211.6 168.16C209.733 171.413 207.013 174.293 203.44 176.8C203.227 179.573 202.32 182.32 200.72 185.04C199.173 187.707 196.96 190.08 194.08 192.16C191.2 194.24 187.6 195.76 183.28 196.72C186.267 198.747 189.707 199.76 193.6 199.76C196.533 199.76 199.467 199.12 202.4 197.84C205.387 196.56 208.107 194.613 210.56 192C213.067 189.333 215.067 185.973 216.56 181.92C218.053 177.813 218.8 172.96 218.8 167.36C218.8 166.24 218.773 165.093 218.72 163.92C218.667 162.693 218.56 161.44 218.4 160.16C218.24 158.56 217.893 156.853 217.36 155.04C216.88 153.227 216.427 151.36 216 149.44C215.573 147.52 215.36 145.627 215.36 143.76C215.36 142 215.627 140.293 216.16 138.64C216.747 136.933 217.787 135.333 219.28 133.84C220.507 132.56 221.947 131.627 223.6 131.04C225.307 130.4 226.96 130.08 228.56 130.08C231.227 130.08 233.253 130.773 234.64 132.16C235.173 132.693 235.547 133.227 235.76 133.76C235.973 134.24 236.08 134.693 236.08 135.12C236.08 135.973 235.76 136.4 235.12 136.4C234.693 136.4 234.267 136.16 233.84 135.68C233.04 134.773 231.947 134.08 230.56 133.6C229.227 133.067 227.867 132.8 226.48 132.8C225.413 132.8 224.373 132.96 223.36 133.28C222.4 133.6 221.547 134.133 220.8 134.88C219.627 136.053 218.773 137.36 218.24 138.8C217.76 140.187 217.52 141.653 217.52 143.2C217.52 145.173 217.813 147.2 218.4 149.28C219.04 151.36 219.76 153.387 220.56 155.36C221.36 157.28 222 159.093 222.48 160.8C223.92 165.653 224.64 170.08 224.64 174.08C224.64 178.773 223.813 182.88 222.16 186.4C220.56 189.92 218.373 192.827 215.6 195.12C212.88 197.467 209.84 199.2 206.48 200.32C203.173 201.493 199.84 202.08 196.48 202.08ZM203.52 174.56C206.613 172.107 209.013 169.44 210.72 166.56C212.427 163.627 213.28 160.96 213.28 158.56C213.28 156.533 212.587 154.853 211.2 153.52C209.867 152.187 207.733 151.52 204.8 151.52C202.933 151.52 200.56 152.027 197.68 153.04C194.853 154.053 192.027 155.653 189.2 157.84C193.787 159.013 197.28 161.173 199.68 164.32C202.08 167.413 203.36 170.827 203.52 174.56ZM174.48 180.16C174.64 178.88 174.88 177.493 175.2 176C176.107 172.053 177.573 168.64 179.6 165.76C181.68 162.827 183.947 160.347 186.4 158.32C185.76 158.213 185.147 158.133 184.56 158.08C183.973 158.027 183.387 158 182.8 158C179.6 158 176.88 158.613 174.64 159.84C172.453 161.067 170.773 162.64 169.6 164.56C168.48 166.48 167.92 168.453 167.92 170.48C167.92 172.4 168.453 174.24 169.52 176C170.587 177.76 172.24 179.147 174.48 180.16ZM182.72 181.76C186.667 181.76 190.293 181.147 193.6 179.92C196.96 178.693 199.947 177.147 202.56 175.28C202.613 172.773 202.08 170.4 200.96 168.16C199.893 165.867 198.293 163.893 196.16 162.24C194.027 160.533 191.387 159.333 188.24 158.64C185.787 160.613 183.547 163.093 181.52 166.08C179.493 169.013 178.027 172.453 177.12 176.4C176.747 177.893 176.507 179.387 176.4 180.88C178.267 181.467 180.373 181.76 182.72 181.76ZM182 195.76C186.213 194.907 189.76 193.547 192.64 191.68C195.573 189.813 197.84 187.653 199.44 185.2C201.04 182.693 202.027 180.133 202.4 177.52C199.84 179.173 196.907 180.533 193.6 181.6C190.293 182.613 186.667 183.12 182.72 183.12C181.547 183.12 180.4 183.04 179.28 182.88C178.213 182.72 177.227 182.533 176.32 182.32C176.267 185.253 176.747 187.867 177.76 190.16C178.827 192.4 180.24 194.267 182 195.76ZM244.489 164.4C243.742 164.4 243.102 164.16 242.569 163.68C242.089 163.147 241.849 162.533 241.849 161.84C241.849 160.933 242.142 160.16 242.729 159.52C243.369 158.88 244.115 158.56 244.969 158.56C245.715 158.56 246.355 158.827 246.889 159.36C247.422 159.893 247.689 160.56 247.689 161.36C247.689 162.213 247.369 162.933 246.729 163.52C246.089 164.107 245.342 164.4 244.489 164.4ZM235.689 194.4C234.729 194.4 233.955 194.053 233.369 193.36C232.835 192.613 232.569 191.653 232.569 190.48C232.569 188.987 232.862 187.387 233.449 185.68C234.089 183.973 234.809 182.267 235.609 180.56C236.462 178.8 237.209 177.147 237.849 175.6C238.115 174.853 238.355 174.187 238.569 173.6C238.782 173.013 238.889 172.533 238.889 172.16C238.889 171.627 238.649 171.36 238.169 171.36C237.529 171.36 236.889 171.76 236.249 172.56C235.609 173.36 235.022 174.267 234.489 175.28C234.009 176.24 233.609 177.013 233.289 177.6C232.489 179.147 231.609 180.747 230.649 182.4C229.742 184.053 228.809 185.573 227.849 186.96C227.849 187.013 227.795 187.04 227.689 187.04C227.582 187.04 227.449 186.96 227.289 186.8C227.129 186.64 227.075 186.533 227.129 186.48C228.142 185.04 229.075 183.52 229.929 181.92C230.835 180.267 231.662 178.693 232.409 177.2C232.942 176.08 233.529 174.933 234.169 173.76C234.862 172.533 235.662 171.52 236.569 170.72C237.475 169.867 238.515 169.44 239.689 169.44C240.222 169.44 240.835 169.573 241.529 169.84C242.329 170.16 242.729 170.853 242.729 171.92C242.729 172.453 242.622 173.093 242.409 173.84C242.249 174.533 242.009 175.333 241.689 176.24C240.995 178.053 240.222 179.893 239.369 181.76C238.569 183.573 237.822 185.413 237.129 187.28C236.595 188.72 236.329 190 236.329 191.12C236.329 192.347 236.729 192.96 237.529 192.96C238.275 192.96 239.422 192.293 240.969 190.96C242.515 189.573 243.955 187.84 245.289 185.76C246.622 183.627 248.222 180.773 250.089 177.2C250.142 177.093 250.249 177.04 250.409 177.04C250.515 177.04 250.622 177.12 250.729 177.28C250.889 177.387 250.942 177.493 250.889 177.6C248.062 183.093 245.529 187.28 243.289 190.16C241.049 192.987 238.515 194.4 235.689 194.4ZM250.545 194.4C248.732 194.4 247.478 193.893 246.785 192.88C246.145 191.867 245.825 190.613 245.825 189.12C245.825 187.573 246.092 185.947 246.625 184.24C247.158 182.533 247.665 181.173 248.145 180.16C249.852 176.587 252.225 173.867 255.265 172C258.358 170.08 261.532 169.12 264.785 169.12C265.212 169.12 265.638 169.12 266.065 169.12C266.545 169.12 266.998 169.173 267.425 169.28C268.492 169.44 269.025 169.573 269.025 169.68C269.025 169.787 268.625 169.893 267.825 170C267.078 170.107 266.518 170.16 266.145 170.16C263.532 170.16 261.185 170.853 259.105 172.24C257.078 173.627 255.345 175.387 253.905 177.52C252.465 179.653 251.345 181.84 250.545 184.08C249.798 186.267 249.425 188.16 249.425 189.76C249.425 190.773 249.585 191.6 249.905 192.24C250.278 192.88 250.812 193.2 251.505 193.2C252.252 193.2 253.105 192.693 254.065 191.68C255.025 190.667 255.958 189.44 256.865 188C257.772 186.507 258.598 185.067 259.345 183.68C260.092 182.24 260.652 181.147 261.025 180.4L264.465 173.2C265.372 172.987 266.278 172.747 267.185 172.48C268.145 172.16 269.052 171.813 269.905 171.44C268.998 172.987 268.118 174.613 267.265 176.32C266.465 178.027 265.638 179.707 264.785 181.36C264.145 182.587 263.505 184.027 262.865 185.68C262.278 187.333 261.985 188.827 261.985 190.16V190.48C261.985 190.907 262.038 191.387 262.145 191.92C262.252 192.4 262.545 192.64 263.025 192.64C263.612 192.64 264.358 192.293 265.265 191.6C266.172 190.853 266.812 190.293 267.185 189.92C268.892 188.213 270.358 186.32 271.585 184.24C272.865 182.16 274.038 180.053 275.105 177.92C275.212 177.813 275.292 177.76 275.345 177.76C275.772 177.76 275.932 177.973 275.825 178.4C275.825 178.4 275.692 178.64 275.425 179.12C275.212 179.6 275.078 179.867 275.025 179.92C274.012 181.787 272.998 183.573 271.985 185.28C270.972 186.987 269.772 188.613 268.385 190.16C267.532 191.013 266.492 191.92 265.265 192.88C264.038 193.84 262.812 194.32 261.585 194.32C260.412 194.32 259.585 193.867 259.105 192.96C258.625 192 258.385 190.933 258.385 189.76C258.385 189.013 258.438 188.293 258.545 187.6C258.705 186.853 258.865 186.213 259.025 185.68C258.652 186.64 257.985 187.813 257.025 189.2C256.118 190.587 255.078 191.813 253.905 192.88C252.785 193.893 251.665 194.4 250.545 194.4ZM280.496 194.4C278.256 194.4 277.136 193.147 277.136 190.64C277.136 189.68 277.322 188.533 277.696 187.2C278.069 185.867 278.656 184.4 279.456 182.8C279.882 181.84 280.469 180.693 281.216 179.36C281.962 177.973 282.629 176.613 283.216 175.28C283.856 173.947 284.176 172.88 284.176 172.08C284.176 171.28 283.749 170.88 282.896 170.88C282.522 170.88 282.042 170.987 281.456 171.2C280.869 171.36 280.069 171.573 279.056 171.84C278.629 172.907 277.936 174.4 276.976 176.32C276.069 178.187 275.056 180.107 273.936 182.08C272.816 184.053 271.749 185.76 270.736 187.2C270.736 187.2 270.709 187.227 270.656 187.28C270.656 187.28 270.602 187.28 270.496 187.28C270.389 187.28 270.229 187.253 270.016 187.2C269.856 187.093 269.802 187.013 269.856 186.96C270.709 185.733 271.589 184.32 272.496 182.72C273.402 181.067 274.256 179.44 275.056 177.84C275.909 176.24 276.602 174.88 277.136 173.76C277.722 172.587 278.042 171.893 278.096 171.68C277.296 171.413 276.656 170.8 276.176 169.84C275.749 168.827 275.536 167.813 275.536 166.8C275.536 165.893 275.749 165.12 276.176 164.48C276.602 163.84 277.242 163.52 278.096 163.52C278.736 163.52 279.162 163.867 279.376 164.56C279.642 165.2 279.776 165.973 279.776 166.88C279.776 168.053 279.642 169.227 279.376 170.4C279.376 170.4 279.669 170.347 280.256 170.24C280.842 170.133 281.536 170.053 282.336 170C283.136 169.893 283.829 169.84 284.416 169.84C286.176 169.84 287.056 170.693 287.056 172.4C287.056 173.467 286.762 174.853 286.176 176.56C285.589 178.213 284.842 180.133 283.936 182.32C282.122 186.64 281.216 189.68 281.216 191.44C281.216 192.507 281.562 193.04 282.256 193.04C283.109 193.04 284.309 192.347 285.856 190.96C287.402 189.573 288.816 187.84 290.096 185.76C291.429 183.627 293.056 180.773 294.976 177.2C295.029 177.093 295.109 177.04 295.216 177.04C295.376 177.04 295.509 177.12 295.616 177.28C295.776 177.387 295.829 177.493 295.776 177.6C292.842 183.147 290.282 187.333 288.096 190.16C285.909 192.987 283.376 194.4 280.496 194.4ZM284.507 226C283.654 226 282.987 225.707 282.507 225.12C281.974 224.587 281.707 223.76 281.707 222.64C281.707 221.733 281.92 220.667 282.347 219.44C282.72 218.213 283.334 216.827 284.187 215.28C285.254 213.36 286.507 211.387 287.947 209.36C289.387 207.333 290.907 205.413 292.507 203.6C294.107 201.787 295.6 200.213 296.987 198.88C298.427 197.547 299.627 196.64 300.587 196.16C300.8 195.627 301.094 194.773 301.467 193.6C301.894 192.427 302.32 191.2 302.747 189.92C303.227 188.587 303.627 187.467 303.947 186.56C304.267 185.653 304.427 185.2 304.427 185.2C303.68 186.533 302.827 187.92 301.867 189.36C300.96 190.747 299.974 191.947 298.907 192.96C297.84 193.92 296.694 194.4 295.467 194.4C293.654 194.4 292.4 193.893 291.707 192.88C291.067 191.813 290.747 190.56 290.747 189.12C290.747 187.573 291.014 185.947 291.547 184.24C292.08 182.533 292.587 181.173 293.067 180.16C294.774 176.587 297.147 173.867 300.187 172C303.28 170.08 306.454 169.12 309.707 169.12C310.134 169.12 310.56 169.12 310.987 169.12C311.467 169.12 311.92 169.173 312.347 169.28C313.414 169.44 313.947 169.573 313.947 169.68C313.947 169.787 313.547 169.893 312.747 170C312 170.107 311.44 170.16 311.067 170.16C308.454 170.16 306.107 170.853 304.027 172.24C302 173.627 300.267 175.387 298.827 177.52C297.387 179.653 296.267 181.84 295.467 184.08C294.72 186.267 294.347 188.16 294.347 189.76C294.347 190.773 294.507 191.6 294.827 192.24C295.2 192.88 295.734 193.2 296.427 193.2C297.174 193.2 298.027 192.693 298.987 191.68C299.947 190.667 300.88 189.44 301.787 188C302.694 186.507 303.52 185.067 304.267 183.68C305.014 182.24 305.574 181.147 305.947 180.4L309.387 173.2C310.294 172.987 311.307 172.72 312.427 172.4C313.547 172.08 314.534 171.733 315.387 171.36C314.534 172.32 313.6 173.653 312.587 175.36C311.574 177.013 310.694 178.667 309.947 180.32C309.147 182.187 308.454 183.893 307.867 185.44C307.334 186.933 306.8 188.4 306.267 189.84C305.787 191.28 305.227 192.88 304.587 194.64C307.147 193.04 309.174 191.467 310.667 189.92C312.214 188.32 313.547 186.587 314.667 184.72C315.84 182.853 317.067 180.72 318.347 178.32C318.454 178.16 318.587 178.08 318.747 178.08C318.907 178.08 319.04 178.16 319.147 178.32C319.254 178.427 319.254 178.587 319.147 178.8C317.707 181.467 316.347 183.787 315.067 185.76C313.84 187.733 312.374 189.52 310.667 191.12C309.014 192.72 306.827 194.347 304.107 196C303.2 198.4 302.134 201.093 300.907 204.08C299.68 207.067 298.347 209.973 296.907 212.8C295.52 215.68 294.054 218.187 292.507 220.32C291.174 222.187 289.787 223.6 288.347 224.56C286.854 225.52 285.574 226 284.507 226ZM284.747 224.88C285.387 224.88 286.214 224.4 287.227 223.44C288.187 222.48 289.28 220.933 290.507 218.8C291.52 216.987 292.534 214.987 293.547 212.8C294.614 210.667 295.6 208.56 296.507 206.48C297.414 204.4 298.187 202.587 298.827 201.04C299.467 199.493 299.894 198.453 300.107 197.92C298.987 198.56 297.76 199.547 296.427 200.88C295.094 202.213 293.734 203.733 292.347 205.44C290.96 207.147 289.68 208.933 288.507 210.8C287.28 212.667 286.24 214.453 285.387 216.16C284.694 217.493 284.214 218.72 283.947 219.84C283.627 220.96 283.467 221.893 283.467 222.64C283.467 224.133 283.894 224.88 284.747 224.88ZM319.373 194.4C317.56 194.4 316.306 193.893 315.613 192.88C314.973 191.867 314.653 190.613 314.653 189.12C314.653 187.573 314.92 185.947 315.453 184.24C315.986 182.533 316.493 181.173 316.973 180.16C318.68 176.587 321.053 173.867 324.093 172C327.186 170.08 330.36 169.12 333.613 169.12C334.04 169.12 334.466 169.12 334.893 169.12C335.373 169.12 335.826 169.173 336.253 169.28C337.32 169.44 337.853 169.573 337.853 169.68C337.853 169.787 337.453 169.893 336.653 170C335.906 170.107 335.346 170.16 334.973 170.16C332.36 170.16 330.013 170.853 327.933 172.24C325.906 173.627 324.173 175.387 322.733 177.52C321.293 179.653 320.173 181.84 319.373 184.08C318.626 186.267 318.253 188.16 318.253 189.76C318.253 190.773 318.413 191.6 318.733 192.24C319.106 192.88 319.64 193.2 320.333 193.2C321.08 193.2 321.933 192.693 322.893 191.68C323.853 190.667 324.786 189.44 325.693 188C326.6 186.507 327.426 185.067 328.173 183.68C328.92 182.24 329.48 181.147 329.853 180.4L333.293 173.2C334.2 172.987 335.106 172.747 336.013 172.48C336.973 172.16 337.88 171.813 338.733 171.44C337.826 172.987 336.946 174.613 336.093 176.32C335.293 178.027 334.466 179.707 333.613 181.36C332.973 182.587 332.333 184.027 331.693 185.68C331.106 187.333 330.813 188.827 330.813 190.16V190.48C330.813 190.907 330.866 191.387 330.973 191.92C331.08 192.4 331.373 192.64 331.853 192.64C332.44 192.64 333.186 192.293 334.093 191.6C335 190.853 335.64 190.293 336.013 189.92C337.72 188.213 339.186 186.32 340.413 184.24C341.693 182.16 342.866 180.053 343.933 177.92C344.04 177.813 344.12 177.76 344.173 177.76C344.6 177.76 344.76 177.973 344.653 178.4C344.653 178.4 344.52 178.64 344.253 179.12C344.04 179.6 343.906 179.867 343.853 179.92C342.84 181.787 341.826 183.573 340.813 185.28C339.8 186.987 338.6 188.613 337.213 190.16C336.36 191.013 335.32 191.92 334.093 192.88C332.866 193.84 331.64 194.32 330.413 194.32C329.24 194.32 328.413 193.867 327.933 192.96C327.453 192 327.213 190.933 327.213 189.76C327.213 189.013 327.266 188.293 327.373 187.6C327.533 186.853 327.693 186.213 327.853 185.68C327.48 186.64 326.813 187.813 325.853 189.2C324.946 190.587 323.906 191.813 322.733 192.88C321.613 193.893 320.493 194.4 319.373 194.4ZM345.084 194.4C343.324 194.4 342.097 193.92 341.404 192.96C340.764 191.947 340.444 190.72 340.444 189.28C340.444 187.733 340.71 186.107 341.244 184.4C341.777 182.64 342.284 181.227 342.764 180.16C344.204 176.8 346.017 174.187 348.204 172.32C350.39 170.4 352.39 169.44 354.204 169.44C355.75 169.44 356.79 169.893 357.324 170.8C357.91 171.707 358.204 172.827 358.204 174.16C358.204 175.547 357.964 177.013 357.484 178.56C357.057 180.053 356.577 181.333 356.044 182.4C355.404 183.733 354.737 184.987 354.044 186.16C353.35 187.333 352.63 188.4 351.884 189.36C352.364 189.787 352.95 190 353.644 190C354.71 190 355.75 189.493 356.764 188.48C357.83 187.467 358.817 186.213 359.724 184.72C360.684 183.227 361.51 181.787 362.204 180.4C362.95 179.013 363.51 177.973 363.884 177.28C363.99 177.12 364.097 177.04 364.204 177.04C364.31 177.04 364.417 177.147 364.524 177.36C364.63 177.52 364.63 177.707 364.524 177.92C363.67 179.733 362.604 181.76 361.324 184C360.097 186.24 358.71 188.08 357.164 189.52C356.524 190.107 355.91 190.533 355.324 190.8C354.737 191.067 354.204 191.2 353.724 191.2C352.817 191.2 352.017 190.853 351.324 190.16C350.31 191.493 349.27 192.533 348.204 193.28C347.137 194.027 346.097 194.4 345.084 194.4ZM346.044 193.2C346.63 193.2 347.324 192.853 348.124 192.16C348.924 191.413 349.75 190.453 350.604 189.28C350.604 189.28 350.444 189.013 350.124 188.48C349.857 187.947 349.724 187.147 349.724 186.08C349.724 185.653 349.75 185.2 349.804 184.72C349.857 184.187 349.99 183.653 350.204 183.12C350.577 182.053 351.03 181.28 351.564 180.8C352.097 180.267 352.63 180 353.164 180C353.644 180 354.017 180.24 354.284 180.72C354.604 181.147 354.684 181.787 354.524 182.64C355.27 180.987 355.884 179.387 356.364 177.84C356.844 176.24 357.084 174.853 357.084 173.68C357.084 172.773 356.897 172.053 356.524 171.52C356.204 170.933 355.617 170.64 354.764 170.64C354.017 170.64 353.164 171.12 352.204 172.08C351.244 172.987 350.257 174.213 349.244 175.76C348.284 177.253 347.377 178.88 346.524 180.64C345.724 182.4 345.057 184.133 344.524 185.84C344.044 187.493 343.804 188.933 343.804 190.16C343.804 191.067 343.964 191.813 344.284 192.4C344.657 192.933 345.244 193.2 346.044 193.2ZM390.026 200.16C387.572 200.16 385.306 199.813 383.226 199.12C381.146 198.427 379.466 197.227 378.186 195.52C376.959 193.867 376.346 191.573 376.346 188.64C376.346 185.973 377.066 183.413 378.506 180.96C379.946 178.507 381.839 176.267 384.186 174.24C386.532 172.16 389.039 170.347 391.706 168.8C392.346 168.48 392.772 168.32 392.986 168.32C393.199 168.32 393.306 168.4 393.306 168.56C393.306 168.773 393.039 169.067 392.506 169.44C387.492 172.32 383.866 175.44 381.626 178.8C379.439 182.107 378.346 185.227 378.346 188.16C378.346 191.253 379.466 193.867 381.706 196C383.946 198.133 386.932 199.2 390.666 199.2C392.692 199.2 394.826 198.853 397.066 198.16C398.612 197.68 399.999 197.013 401.226 196.16C402.452 195.36 403.626 194.373 404.746 193.2C403.252 191.173 402.106 188.773 401.306 186C400.559 183.227 400.186 180.32 400.186 177.28C400.186 174.827 400.452 172.347 400.986 169.84C401.519 167.333 402.292 164.933 403.306 162.64C402.559 160.507 402.186 158.267 402.186 155.92C402.186 152.347 403.066 148.773 404.826 145.2C406.639 141.573 409.466 138.613 413.306 136.32C416.292 134.507 419.386 133.28 422.586 132.64C425.839 132 429.092 131.68 432.346 131.68C435.066 131.68 437.759 131.84 440.426 132.16C443.092 132.427 445.652 132.693 448.106 132.96C449.759 131.307 451.412 130.053 453.066 129.2C454.719 128.293 456.399 127.84 458.106 127.84C459.332 127.84 460.239 128.027 460.826 128.4C461.412 128.773 461.706 129.227 461.706 129.76C461.706 130.453 461.306 131.173 460.506 131.92C459.706 132.667 458.666 133.227 457.386 133.6C456.212 133.92 454.959 134.107 453.626 134.16C452.346 134.213 451.172 134.213 450.106 134.16C448.559 135.973 447.012 138.053 445.466 140.4C443.972 142.693 442.559 145.04 441.226 147.44C444.052 148.4 446.159 149.813 447.546 151.68C448.932 153.547 449.626 155.573 449.626 157.76C449.626 160.053 448.826 162.373 447.226 164.72C445.626 167.013 443.226 169.013 440.026 170.72C436.879 172.373 432.906 173.413 428.106 173.84C425.652 178.053 422.879 181.973 419.786 185.6C416.692 189.173 413.226 192.16 409.386 194.56C410.879 195.573 412.532 196.373 414.346 196.96C416.212 197.6 418.266 197.92 420.506 197.92C422.906 197.92 425.172 197.627 427.306 197.04C429.439 196.507 431.252 195.787 432.746 194.88C434.239 193.973 435.199 193.013 435.626 192C435.786 191.733 435.946 191.6 436.106 191.6C436.426 191.6 436.506 191.867 436.346 192.4C435.866 193.68 434.826 194.827 433.226 195.84C431.626 196.907 429.706 197.733 427.466 198.32C425.226 198.907 422.906 199.2 420.506 199.2C417.999 199.2 415.706 198.827 413.626 198.08C411.599 197.387 409.786 196.453 408.186 195.28C406.372 196.293 404.479 197.173 402.506 197.92C400.586 198.667 398.532 199.227 396.346 199.6C395.332 199.76 394.292 199.893 393.226 200C392.159 200.107 391.092 200.16 390.026 200.16ZM450.986 133.2C454.399 133.36 456.852 133.04 458.346 132.24C459.892 131.387 460.666 130.613 460.666 129.92C460.666 129.12 460.026 128.72 458.746 128.72C458.319 128.72 457.652 128.853 456.746 129.12C455.786 129.44 454.826 129.947 453.866 130.64C452.906 131.333 451.946 132.187 450.986 133.2ZM405.066 161.12C406.826 158.347 409.039 155.867 411.706 153.68C414.426 151.493 417.679 149.76 421.466 148.48C425.252 147.147 429.652 146.48 434.666 146.48C435.199 146.48 435.732 146.48 436.266 146.48C436.799 146.48 437.332 146.507 437.866 146.56C439.412 144.053 440.959 141.733 442.506 139.6C444.106 137.413 445.679 135.493 447.226 133.84C445.679 133.68 444.106 133.547 442.506 133.44C440.906 133.333 439.306 133.28 437.706 133.28C434.079 133.28 430.399 133.68 426.666 134.48C422.986 135.227 419.332 136.693 415.706 138.88C411.972 141.067 409.146 143.813 407.226 147.12C405.359 150.373 404.426 153.6 404.426 156.8C404.426 158.24 404.639 159.68 405.066 161.12ZM422.186 172.88C424.799 168.72 427.332 164.48 429.786 160.16C432.292 155.787 434.746 151.653 437.146 147.76C436.666 147.707 436.186 147.68 435.706 147.68C435.279 147.68 434.852 147.68 434.426 147.68C429.572 147.68 425.279 148.373 421.546 149.76C417.812 151.093 414.612 152.88 411.946 155.12C409.332 157.36 407.199 159.867 405.546 162.64C406.666 165.253 408.612 167.52 411.386 169.44C414.159 171.307 417.759 172.453 422.186 172.88ZM428.746 172.8C433.066 172.267 436.586 171.253 439.306 169.76C442.079 168.213 444.106 166.427 445.386 164.4C446.719 162.32 447.386 160.24 447.386 158.16C447.386 156.133 446.799 154.267 445.626 152.56C444.452 150.8 442.772 149.467 440.586 148.56C438.452 152.507 436.479 156.56 434.666 160.72C432.906 164.827 430.932 168.853 428.746 172.8ZM406.826 192.32C409.492 189.973 412.052 187.2 414.506 184C416.959 180.8 419.332 177.387 421.626 173.76C417.466 173.333 413.972 172.24 411.146 170.48C408.319 168.667 406.186 166.507 404.746 164C403.626 166.133 402.772 168.347 402.186 170.64C401.652 172.88 401.386 175.093 401.386 177.28C401.386 180.16 401.839 182.907 402.746 185.52C403.652 188.133 405.012 190.4 406.826 192.32ZM450.439 194.8C447.026 194.8 444.679 194.187 443.399 192.96C442.173 191.733 441.559 190.373 441.559 188.88C441.559 187.493 441.906 186.24 442.599 185.12C443.293 183.947 443.986 183.253 444.679 183.04C445.159 182.187 445.666 181.253 446.199 180.24C446.786 179.227 447.319 178.24 447.799 177.28C448.759 175.36 449.746 173.547 450.759 171.84C451.773 170.08 452.866 168.667 454.039 167.6C455.266 166.533 456.546 166 457.879 166C458.519 166 459.186 166.133 459.879 166.4C460.573 166.72 460.919 167.04 460.919 167.36C460.919 167.573 460.813 167.733 460.599 167.84C460.386 167.947 460.146 167.973 459.879 167.92C458.919 167.653 458.039 167.92 457.239 168.72C456.439 169.52 456.039 170.613 456.039 172C456.039 172.213 456.039 172.453 456.039 172.72C456.093 172.933 456.146 173.173 456.199 173.44C456.519 174.72 456.839 176.187 457.159 177.84C457.533 179.493 457.719 181.173 457.719 182.88C457.719 183.52 457.693 184.16 457.639 184.8C457.586 185.44 457.453 186.053 457.239 186.64C456.546 188.613 455.586 190.187 454.359 191.36C453.186 192.48 451.746 193.307 450.039 193.84C451.319 193.893 452.653 193.787 454.039 193.52C455.479 193.2 456.706 192.747 457.719 192.16C459.479 191.147 461.026 189.76 462.359 188C463.746 186.24 464.973 184.4 466.039 182.48C467.106 180.507 468.066 178.72 468.919 177.12C468.973 176.907 469.133 176.8 469.399 176.8C469.559 176.8 469.693 176.88 469.799 177.04C469.906 177.147 469.906 177.28 469.799 177.44C468.733 179.413 467.639 181.413 466.519 183.44C465.399 185.413 464.146 187.253 462.759 188.96C461.373 190.613 459.719 191.973 457.799 193.04C455.719 194.213 453.266 194.8 450.439 194.8ZM447.159 193.44C448.226 193.44 449.319 193.093 450.439 192.4C451.559 191.707 452.359 190.693 452.839 189.36C453.426 187.707 453.773 185.867 453.879 183.84C454.039 181.76 454.119 179.813 454.119 178C454.119 176.187 454.146 174.8 454.199 173.84C454.306 172.347 454.706 170.96 455.399 169.68C456.093 168.347 457.266 167.547 458.919 167.28C458.546 167.067 458.173 166.96 457.799 166.96C456.893 166.96 455.959 167.36 454.999 168.16C454.039 168.96 453.319 169.68 452.839 170.32C452.093 171.333 451.373 172.533 450.679 173.92C449.986 175.307 449.213 176.773 448.359 178.32L445.959 182.64C446.119 182.587 446.359 182.56 446.679 182.56C447.533 182.56 448.066 182.8 448.279 183.28C448.546 183.76 448.626 184.107 448.519 184.32C448.359 184.267 448.199 184.24 448.039 184.24C447.933 184.187 447.826 184.16 447.719 184.16C446.813 184.16 446.013 184.533 445.319 185.28C444.679 186.027 444.226 186.853 443.959 187.76C443.853 188.133 443.773 188.507 443.719 188.88C443.666 189.2 443.639 189.493 443.639 189.76C443.639 191.04 443.986 191.973 444.679 192.56C445.373 193.147 446.199 193.44 447.159 193.44ZM469.695 194.72C468.682 194.72 467.775 194.32 466.975 193.52C466.175 192.667 465.775 191.173 465.775 189.04C465.775 187.6 466.068 185.733 466.655 183.44C467.242 181.147 468.015 178.613 468.975 175.84C469.988 173.067 471.082 170.24 472.255 167.36C473.482 164.427 474.708 161.653 475.935 159.04C477.215 156.373 478.388 154 479.455 151.92C480.575 149.84 481.535 148.267 482.335 147.2C483.722 145.333 485.135 143.92 486.575 142.96C488.068 141.947 489.348 141.44 490.415 141.44C492.175 141.44 493.055 142.533 493.055 144.72C493.055 145.893 492.708 147.413 492.015 149.28C491.322 151.093 490.175 153.28 488.575 155.84C487.402 157.707 486.068 159.68 484.575 161.76C483.135 163.787 481.668 165.76 480.175 167.68C478.682 169.6 477.242 171.333 475.855 172.88C474.522 174.373 473.375 175.547 472.415 176.4C472.415 176.4 472.228 176.933 471.855 178C471.482 179.013 471.028 180.32 470.495 181.92C470.015 183.467 469.588 185.067 469.215 186.72C468.842 188.373 468.655 189.813 468.655 191.04C468.655 191.84 468.762 192.507 468.975 193.04C469.242 193.52 469.642 193.76 470.175 193.76C470.975 193.76 472.068 193.227 473.455 192.16C474.308 191.52 475.135 190.773 475.935 189.92C476.735 189.013 477.428 188.133 478.015 187.28C478.655 186.427 479.082 185.813 479.295 185.44C479.775 184.693 480.335 183.733 480.975 182.56C481.668 181.387 482.308 180.293 482.895 179.28C483.482 178.213 483.828 177.547 483.935 177.28C484.042 177.173 484.122 177.12 484.175 177.12C484.282 177.12 484.415 177.2 484.575 177.36C484.735 177.467 484.762 177.573 484.655 177.68C483.375 180.347 482.175 182.613 481.055 184.48C479.988 186.347 478.895 187.947 477.775 189.28C476.655 190.56 475.402 191.787 474.015 192.96C473.428 193.493 472.735 193.92 471.935 194.24C471.188 194.56 470.442 194.72 469.695 194.72ZM472.975 174.64C474.255 173.147 475.775 171.28 477.535 169.04C479.295 166.747 481.082 164.347 482.895 161.84C484.708 159.333 486.282 156.987 487.615 154.8C488.948 152.613 489.882 150.693 490.415 149.04C491.002 147.387 491.295 146.053 491.295 145.04C491.295 143.6 490.842 142.88 489.935 142.88C489.348 142.88 488.548 143.36 487.535 144.32C486.575 145.227 485.535 146.693 484.415 148.72C483.615 150.16 482.735 151.893 481.775 153.92C480.815 155.947 479.855 158.08 478.895 160.32C477.935 162.56 477.028 164.693 476.175 166.72C475.322 168.693 474.602 170.4 474.015 171.84C473.482 173.28 473.135 174.213 472.975 174.64ZM484.451 194.4C482.638 194.4 481.385 193.893 480.691 192.88C480.051 191.867 479.731 190.613 479.731 189.12C479.731 187.573 479.998 185.947 480.531 184.24C481.065 182.533 481.571 181.173 482.051 180.16C483.758 176.587 486.131 173.867 489.171 172C492.265 170.08 495.438 169.12 498.691 169.12C499.118 169.12 499.545 169.12 499.971 169.12C500.451 169.12 500.905 169.173 501.331 169.28C502.398 169.44 502.931 169.573 502.931 169.68C502.931 169.787 502.531 169.893 501.731 170C500.985 170.107 500.425 170.16 500.051 170.16C497.438 170.16 495.091 170.853 493.011 172.24C490.985 173.627 489.251 175.387 487.811 177.52C486.371 179.653 485.251 181.84 484.451 184.08C483.705 186.267 483.331 188.16 483.331 189.76C483.331 190.773 483.491 191.6 483.811 192.24C484.185 192.88 484.718 193.2 485.411 193.2C486.158 193.2 487.011 192.693 487.971 191.68C488.931 190.667 489.865 189.44 490.771 188C491.678 186.507 492.505 185.067 493.251 183.68C493.998 182.24 494.558 181.147 494.931 180.4L498.371 173.2C499.278 172.987 500.185 172.747 501.091 172.48C502.051 172.16 502.958 171.813 503.811 171.44C502.905 172.987 502.025 174.613 501.171 176.32C500.371 178.027 499.545 179.707 498.691 181.36C498.051 182.587 497.411 184.027 496.771 185.68C496.185 187.333 495.891 188.827 495.891 190.16V190.48C495.891 190.907 495.945 191.387 496.051 191.92C496.158 192.4 496.451 192.64 496.931 192.64C497.518 192.64 498.265 192.293 499.171 191.6C500.078 190.853 500.718 190.293 501.091 189.92C502.798 188.213 504.265 186.32 505.491 184.24C506.771 182.16 507.945 180.053 509.011 177.92C509.118 177.813 509.198 177.76 509.251 177.76C509.678 177.76 509.838 177.973 509.731 178.4C509.731 178.4 509.598 178.64 509.331 179.12C509.118 179.6 508.985 179.867 508.931 179.92C507.918 181.787 506.905 183.573 505.891 185.28C504.878 186.987 503.678 188.613 502.291 190.16C501.438 191.013 500.398 191.92 499.171 192.88C497.945 193.84 496.718 194.32 495.491 194.32C494.318 194.32 493.491 193.867 493.011 192.96C492.531 192 492.291 190.933 492.291 189.76C492.291 189.013 492.345 188.293 492.451 187.6C492.611 186.853 492.771 186.213 492.931 185.68C492.558 186.64 491.891 187.813 490.931 189.2C490.025 190.587 488.985 191.813 487.811 192.88C486.691 193.893 485.571 194.4 484.451 194.4ZM523.362 194.4C521.122 194.4 520.002 193.147 520.002 190.64C520.002 189.68 520.189 188.533 520.562 187.2C520.935 185.867 521.522 184.4 522.322 182.8C522.749 181.893 523.309 180.827 524.002 179.6C524.749 178.32 525.415 177.067 526.002 175.84C526.589 174.613 526.882 173.653 526.882 172.96C526.882 172.267 526.509 171.92 525.762 171.92C524.749 171.92 523.682 172.48 522.562 173.6C521.495 174.667 520.429 176.053 519.362 177.76C518.295 179.467 517.282 181.253 516.322 183.12C515.362 184.987 514.535 186.747 513.842 188.4C513.149 190 512.642 191.227 512.322 192.08C512.002 192.88 511.549 193.387 510.962 193.6C510.375 193.813 509.735 193.92 509.042 193.92C508.402 193.92 507.789 194.027 507.202 194.24C507.949 192.533 508.562 191.147 509.042 190.08C509.522 189.013 510.029 187.947 510.562 186.88C511.095 185.76 511.735 184.267 512.482 182.4C512.909 181.44 513.389 180.347 513.922 179.12C514.455 177.84 514.909 176.613 515.282 175.44C515.709 174.213 515.922 173.253 515.922 172.56C515.922 171.76 515.655 171.36 515.122 171.36C514.482 171.36 513.842 171.76 513.202 172.56C512.562 173.36 511.975 174.267 511.442 175.28C510.962 176.24 510.562 177.013 510.242 177.6C509.442 179.147 508.642 180.667 507.842 182.16C507.042 183.653 506.135 185.093 505.122 186.48H505.042C504.882 186.48 504.695 186.427 504.482 186.32C504.322 186.213 504.269 186.133 504.322 186.08C505.229 184.64 506.082 183.2 506.882 181.76C507.735 180.32 508.509 178.88 509.202 177.44C509.789 176.32 510.429 175.147 511.122 173.92C511.815 172.64 512.615 171.573 513.522 170.72C514.429 169.867 515.469 169.44 516.642 169.44C517.175 169.44 517.789 169.573 518.482 169.84C519.229 170.16 519.602 170.88 519.602 172C519.602 172.587 519.495 173.307 519.282 174.16C519.069 175.013 518.775 175.973 518.402 177.04C519.789 175.067 521.255 173.387 522.802 172C524.349 170.56 525.762 169.84 527.042 169.84C529.069 169.84 530.082 170.8 530.082 172.72C530.082 173.893 529.735 175.333 529.042 177.04C528.829 177.627 528.429 178.56 527.842 179.84C527.309 181.067 526.749 182.453 526.162 184C525.629 185.493 525.149 186.933 524.722 188.32C524.295 189.707 524.082 190.853 524.082 191.76C524.082 192.72 524.375 193.2 524.962 193.2C525.335 193.2 525.815 193.04 526.402 192.72C527.042 192.347 527.789 191.76 528.642 190.96C530.189 189.573 531.629 187.813 532.962 185.68C534.349 183.547 535.975 180.693 537.842 177.12C537.842 177.013 537.895 176.96 538.002 176.96C538.162 176.96 538.322 177.04 538.482 177.2C538.642 177.36 538.669 177.493 538.562 177.6C536.642 181.333 534.882 184.453 533.282 186.96C531.735 189.413 530.162 191.28 528.562 192.56C527.015 193.787 525.282 194.4 523.362 194.4ZM538.279 194.4C536.519 194.4 535.293 193.893 534.599 192.88C533.959 191.867 533.639 190.64 533.639 189.2C533.639 187.653 533.879 186.027 534.359 184.32C534.893 182.613 535.426 181.227 535.959 180.16C537.826 176.267 540.439 173.387 543.799 171.52C547.213 169.653 550.706 168.853 554.279 169.12C555.506 166.613 556.786 164 558.119 161.28C559.506 158.507 560.786 155.893 561.959 153.44C563.186 150.933 564.226 148.8 565.079 147.04C565.986 145.227 566.573 144.027 566.839 143.44C567.746 143.227 568.733 142.987 569.799 142.72C570.866 142.4 571.826 142.053 572.679 141.68C572.146 142.587 571.293 144 570.119 145.92C568.999 147.84 567.693 150.107 566.199 152.72C564.759 155.28 563.239 158.027 561.639 160.96C560.039 163.893 558.493 166.853 556.999 169.84V170C556.999 170.213 556.866 170.4 556.599 170.56C555.266 173.28 554.039 175.893 552.919 178.4C551.853 180.907 550.973 183.2 550.279 185.28C549.639 187.307 549.319 188.987 549.319 190.32C549.319 191.813 549.826 192.56 550.839 192.56C551.426 192.56 552.093 192.32 552.839 191.84C553.586 191.36 554.306 190.773 554.999 190.08C556.706 188.373 558.173 186.453 559.399 184.32C560.679 182.187 561.879 180.053 562.999 177.92C562.999 177.813 563.053 177.76 563.159 177.76C563.533 177.76 563.719 177.973 563.719 178.4C563.719 178.4 563.586 178.64 563.319 179.12C563.053 179.6 562.893 179.867 562.839 179.92C561.879 181.787 560.893 183.573 559.879 185.28C558.866 186.987 557.639 188.613 556.199 190.16C555.399 191.013 554.359 191.92 553.079 192.88C551.853 193.84 550.626 194.32 549.399 194.32C548.173 194.32 547.319 193.84 546.839 192.88C546.413 191.92 546.199 190.853 546.199 189.68C546.199 188.933 546.253 188.213 546.359 187.52C546.466 186.827 546.599 186.213 546.759 185.68C546.386 186.64 545.719 187.813 544.759 189.2C543.853 190.587 542.813 191.813 541.639 192.88C540.519 193.893 539.399 194.4 538.279 194.4ZM539.239 193.2C539.986 193.2 540.813 192.693 541.719 191.68C542.679 190.667 543.613 189.44 544.519 188C545.479 186.507 546.333 185.067 547.079 183.68C547.826 182.24 548.386 181.147 548.759 180.4L553.799 170.16C551.186 170.213 548.839 170.933 546.759 172.32C544.733 173.707 542.999 175.467 541.559 177.6C540.119 179.68 539.026 181.813 538.279 184C537.533 186.187 537.159 188.08 537.159 189.68C537.159 190.747 537.319 191.6 537.639 192.24C538.013 192.88 538.546 193.2 539.239 193.2Z" fill="#CA6028"/>
</svg>
