<svg width="149" height="213" viewBox="0 0 149 213" fill="none" xmlns="http://www.w3.org/2000/svg">
<path d="M91.8755 0.380895C92.3058 0.565317 92.8591 0.503843 93.0435 0.319421C93.2894 0.134999 92.9206 -0.0494224 92.2444 0.0120515C91.5681 0.0120515 91.3837 0.196473 91.8755 0.380895Z" fill="#C5287F"/>
<path d="M98.454 5.05292C111.487 18.2083 120.154 33.208 125.503 51.7731C129.498 65.9121 130.851 83.0634 129.498 102.243C128.638 113.616 126.855 127.509 125.81 131.198C125.503 132.181 125.072 133.841 124.949 134.886C124.15 139.251 123.781 140.173 121.876 141.832C119.54 143.861 115.667 144.722 113.085 143.738C112.163 143.431 109.888 141.648 107.983 139.865C103.618 135.685 101.466 134.579 97.286 134.517C94.4582 134.456 93.4132 134.763 90.2165 136.669C88.1879 137.96 86.3437 139.189 86.1592 139.558C85.483 140.664 80.9954 142.57 79.1512 142.57C78.1062 142.57 76.5693 141.955 75.6472 141.156L73.9874 139.681L74.6636 133.411C75.7087 124.743 75.5857 101.69 74.4792 90.6247C73.6186 81.7724 71.7743 70.0924 70.5449 65.8507C70.2375 64.8056 70.0531 63.8835 70.176 63.8835C70.6063 63.8835 65.7499 50.0519 64.1516 46.6093C58.7419 35.2981 50.197 26.3844 44.6643 26.3844C37.7178 26.3844 27.5746 37.88 21.919 52.142C18.7223 60.318 15.0953 78.084 14.1732 90.0099C13.9273 93.0222 13.62 96.0959 13.5585 96.7721C13.0667 99.9073 13.3126 124.743 13.9273 129.538C14.2347 132.488 14.8494 137.222 15.1568 140.111C15.5257 143.001 16.3863 148.533 17.124 152.406C17.8002 156.279 18.5994 160.705 18.8453 162.242C19.7059 167.098 26.0992 184.372 27.0828 184.372C27.2057 184.372 26.2221 181.729 24.9312 178.471C20.3821 167.283 17.5543 152.836 15.7716 132.427C15.1568 125.173 14.9109 99.1696 15.4027 95.5426C15.5871 94.4975 16.0175 90.8091 16.3863 87.3051C18.0461 71.9981 21.1813 58.4738 24.9927 50.1133C30.7097 37.5726 39.6849 26.9991 44.6028 26.9991C46.6315 26.9991 49.0904 28.4745 51.4879 31.1179C54.6231 34.6219 57.6968 39.2324 57.2665 39.8472C57.0821 40.216 56.7747 41.6299 56.5903 43.1053C56.2214 46.3019 54.8075 49.9289 52.7789 52.8182C51.365 54.9083 51.365 54.9083 53.7625 52.4493C56.4673 49.683 57.8198 46.179 57.7583 42.1217C57.6968 39.8472 57.7583 39.7242 58.6189 40.8922C59.1107 41.507 60.5861 44.1504 61.877 46.6708C66.7949 56.3837 70.0531 69.5391 72.635 90.3173C73.4956 96.8336 73.9259 115.46 73.4956 125.972C73.0653 137.038 71.9588 147.242 70.1145 156.709C69.5613 159.23 68.9465 162.734 68.5777 164.516C68.2703 166.299 67.0408 170.541 65.8114 173.922C64.5819 177.364 63.7213 180.315 63.9057 180.438C64.0901 180.623 64.8278 178.963 65.5655 176.75C66.3032 174.537 67.1023 172.569 67.4097 172.385C67.7171 172.201 68.1474 172.938 68.3318 174.045C69.3769 178.655 71.7743 185.356 73.2497 187.508C74.1104 188.799 74.7866 190.028 74.7866 190.151C74.7866 190.335 75.8931 192.057 77.2455 193.962C78.5979 195.93 79.7045 197.343 79.7045 197.098C79.7045 196.913 78.5979 194.762 77.307 192.241C76.016 189.782 74.7251 187.139 74.4792 186.34C74.1104 185.11 74.2333 185.049 75.7087 185.602C78.0447 186.524 81.8561 186.34 84.438 185.295C85.6674 184.803 88.8026 182.282 91.446 179.762C97.5319 173.983 98.1467 173.983 102.757 180.315C103.495 181.299 104.909 182.221 106.261 182.467L108.536 183.02L110.749 178.778C111.978 176.442 112.716 174.537 112.47 174.537C112.224 174.598 111.179 176.258 110.257 178.225C109.335 180.254 108.29 181.914 107.921 181.914C106.507 181.914 105.093 180.623 103.065 177.61C99.3761 172.262 95.8721 172.569 89.7247 178.778C83.9462 184.557 80.6266 185.418 74.4792 182.836C72.8809 182.221 72.3891 181.483 71.4055 178.164C69.6842 172.016 69.6228 171.955 71.2211 172.447C77.6758 174.475 82.4708 174.783 85.2986 173.307C86.0978 172.877 88.7411 170.664 91.1386 168.389C96.5483 163.287 98.0852 162.857 101.22 165.684C102.45 166.791 104.233 168.881 105.216 170.233C106.138 171.524 107.368 172.815 107.983 173C110.319 173.737 111.671 173.799 111.978 173.246C112.224 172.938 111.671 172.692 110.81 172.692C109.642 172.692 108.659 171.832 106.753 169.188C102.45 163.102 98.9458 161.258 94.8271 162.857C93.9664 163.164 91.5075 165.193 89.3559 167.406C84.7453 172.139 82.2249 173.061 77.2455 172.016C73.0038 171.094 68.6392 169.127 68.6392 168.143C68.6392 167.713 69.0695 165.992 69.5613 164.27L70.4834 161.135L72.3276 161.996C73.3112 162.488 76.016 163.102 78.4135 163.287C83.8232 163.717 86.8969 162.365 90.8927 157.754C94.6427 153.39 96.7942 152.467 99.8679 153.881C101.097 154.496 102.819 155.91 103.679 157.078C106.261 160.644 110.319 163.471 112.9 163.471C114.13 163.471 115.421 163.164 115.851 162.734C117.511 161.074 117.204 163.041 115.052 168.082C113.761 170.971 112.9 173.492 113.085 173.676C113.454 174.045 117.265 164.947 120.031 157.017C124.027 145.705 128.699 125.419 130.113 113.677C130.482 110.481 131.035 105.747 131.404 103.227C133.064 90.0714 130.974 61.4245 127.654 52.2034C127.347 51.3428 126.363 48.2076 125.441 45.1954C123.167 37.5726 115.605 22.8804 110.687 16.3641C106.507 10.8315 98.577 2.9628 95.6877 1.48743C94.7041 0.995636 95.8107 2.40953 98.454 5.05292ZM101.528 137.222C102.204 137.529 104.171 138.943 105.831 140.357C110.38 144.169 112.163 145.152 114.622 145.214C117.265 145.214 121.445 143.615 122.552 142.14C122.982 141.587 123.535 141.279 123.72 141.525C123.966 141.771 123.843 142.263 123.535 142.693C123.167 143.123 122.675 144.599 122.429 145.951C122.183 147.304 121.814 148.656 121.63 149.025C121.384 149.332 121.199 149.763 121.138 149.947C121.138 150.131 120.954 150.685 120.769 151.177C120.585 151.668 120.093 153.451 119.724 155.172C117.818 163.348 112.47 164.148 106.569 157.201C103.249 153.328 99.622 151.115 97.1016 151.422C94.3353 151.791 93.3517 152.467 89.2329 156.648C87.2043 158.738 84.6224 160.705 83.5159 161.074C81.1184 161.873 76.2619 161.381 73.1268 160.09C71.0367 159.23 71.0367 159.23 71.467 155.972C71.8973 152.283 72.512 151.299 73.68 152.222C74.1104 152.59 75.6472 153.144 77.1226 153.513C81.3028 154.496 84.3765 153.39 90.6468 148.533C92.7984 146.873 95.4418 145.398 96.4869 145.275C99.0688 144.845 102.204 146.197 105.892 149.455C107.552 150.931 109.519 152.467 110.257 152.836C112.286 154.004 115.236 153.82 117.572 152.345C120.4 150.623 120.216 150.254 117.204 151.791C115.913 152.467 114.253 153.021 113.638 153.021C112.101 153.021 107.122 149.64 105.892 147.795C104.356 145.398 100.36 143.185 97.7164 143.185C95.3189 143.185 92.8599 144.414 88.6182 147.734C82.9626 152.16 79.0283 152.959 75.0939 150.377C73.3112 149.271 72.9423 148.656 72.9423 146.873C72.9423 143.861 73.68 142.878 75.2784 143.738C78.5365 145.459 83.0241 144.23 88.7411 140.05C94.1509 135.992 97.5934 135.255 101.528 137.222Z" fill="#C5287F"/>
<path d="M87.0177 3.4545C78.4728 10.7084 72.9401 18.5156 68.2066 30.0727C66.178 35.0521 64.9485 40.3389 66.055 39.6627C66.4239 39.4782 67.5919 37.0193 68.6369 34.1915C73.309 22.0811 78.2269 13.9665 85.5423 6.34378C88.2471 3.51598 90.3373 1.17997 90.0914 1.17997C89.9069 1.17997 88.5545 2.22502 87.0177 3.4545Z" fill="#C5287F"/>
<path d="M92.9821 13.0445C92.7362 15.6264 92.6748 18.8231 92.8592 20.114C93.0436 21.3435 93.351 25.5852 93.5354 29.4581C93.7198 33.3309 94.1501 41.8758 94.4575 48.4535C94.8264 55.0312 95.1337 61.7934 95.0722 63.5146C95.0722 65.2359 95.3181 71.6292 95.564 77.7151C95.8099 83.801 95.9944 91.5468 95.9329 94.9278C95.8714 100.03 95.9944 100.645 96.4247 98.6163C97.7771 93.0836 96.1173 29.8269 94.2116 14.3969L93.4739 8.24953L92.9821 13.0445Z" fill="#C5287F"/>
<path d="M99.1297 20.4214C98.8223 22.0197 98.8223 24.786 99.0067 26.5688C99.4985 30.5646 100.605 47.0396 101.22 59.2729L101.65 68.494V54.9697C101.65 42.1217 101.158 31.3637 100.113 21.7738L99.6215 17.4706L99.1297 20.4214Z" fill="#C5287F"/>
<path d="M44.7243 36.3432C44.7243 39.4169 44.9087 40.4619 45.2775 39.6013C46.0152 37.88 46.0152 31.9171 45.2775 31.9171C44.9087 31.9171 44.6628 33.7613 44.7243 36.3432Z" fill="#C5287F"/>
<path d="M52.963 41.2611C51.9794 41.6299 49.336 42.9824 47.1844 44.3348C42.8198 46.9782 42.8198 46.9782 42.8198 45.8102C42.8198 44.1504 40.2994 41.7529 38.5166 41.7529C35.0741 41.7529 32.861 45.6872 32.7381 51.8961L32.6766 56.1993H29.234C26.2218 56.1993 25.6071 56.3837 24.1932 58.0435C21.8572 60.7483 22.1645 61.6705 24.6235 59.2115C26.2833 57.5517 27.2054 57.1214 29.1111 57.1214C30.402 57.1214 31.8774 57.4287 32.3692 57.7361C33.1069 58.1664 33.1069 58.3509 32.4307 58.3509C32.0004 58.3509 31.7545 58.7197 31.9389 59.2115C32.1848 59.8262 31.8159 60.1951 30.6479 60.318L28.9881 60.5024L30.7709 61.4246C31.7545 61.9163 32.6766 62.654 32.7995 63.0844C33.2298 64.2524 29.6644 64.6212 26.7751 63.6376C25.2997 63.1458 24.0088 62.8385 23.8243 63.0229C23.2711 63.5761 25.9759 65.0515 27.6357 65.113C28.5578 65.113 29.2955 65.2359 29.2955 65.3589C29.2955 65.4818 28.7422 66.8343 28.0046 68.4326C26.2833 72.3669 27.5128 75.5021 30.7709 75.5636C32.1848 75.5636 35.4429 72.6743 35.4429 71.4448C35.4429 71.0145 35.7503 70.6456 36.1191 70.6456C37.0412 70.6456 36.365 73.2276 34.5208 77.1619C32.861 80.543 29.1726 83.924 25.6686 85.1535C23.8858 85.7682 23.7629 85.9527 24.8694 86.0141C29.4799 86.0756 35.5659 80.3585 36.9183 74.7029L37.3486 72.9202L39.0699 74.58C42.2665 77.6537 46.5082 75.9324 46.5082 71.5678C46.5082 70.3383 45.955 68.3096 45.2787 66.9572C43.7419 63.945 43.7419 63.8835 45.5246 63.8835C47.5533 63.8835 49.7663 61.9163 51.1188 58.9656C52.1638 56.6911 52.1638 56.3837 51.2417 55.4616C50.6885 54.9083 48.9672 54.4165 47 54.2936L43.7419 54.1092L46.4468 54.6624C50.504 55.5231 50.9958 56.2607 49.6434 59.3344C48.7213 61.3631 48.0451 61.9163 45.8935 62.5926C43.3731 63.3302 43.1886 63.3302 41.6518 61.6705C40.7911 60.7483 40.4838 60.1336 40.9756 60.318C41.4674 60.5024 42.8813 60.2565 44.0493 59.8262L46.2009 59.0271L43.2501 59.0885C41.2829 59.15 40.0535 58.8426 39.6846 58.2894C39.3158 57.6746 39.0084 57.6132 38.701 58.105C38.3322 58.6582 38.0248 58.5968 37.4716 57.982C36.9798 57.4902 36.9183 57.0599 37.2871 56.814C37.656 56.6296 37.9019 56.7525 37.9019 57.1828C37.9019 57.6746 38.2707 57.5517 39.0084 56.937C39.6231 56.3222 40.4838 55.8919 40.9141 55.8919C41.3444 55.8919 41.5288 55.646 41.2829 55.2772C41.037 54.9083 40.3608 54.9083 39.3772 55.2772L37.8404 55.8919L38.2707 52.019C38.5781 48.8224 38.5166 48.3306 37.8404 49.0068C37.3486 49.4986 37.0412 50.9125 37.1027 52.5108C37.1642 54.0477 36.9183 55.4001 36.6109 55.5845C36.3035 55.8304 36.0577 55.646 36.0577 55.2772C36.0577 54.8468 35.5659 54.7239 34.8282 54.9698C33.7216 55.3386 33.5987 55.0927 33.5987 53.0026C33.5987 49.6216 34.6437 46.3634 36.365 44.2733C39.1313 41.0767 42.1436 43.3512 42.328 48.8224C42.3895 51.0355 42.4509 51.3428 42.6354 49.8674C42.7583 48.8224 43.1272 47.9003 43.4345 47.9003C43.7419 47.9003 46.2009 46.4864 48.8442 44.8266C51.4876 43.1053 54.008 41.7529 54.3769 41.7529C54.7457 41.7529 55.2375 41.4455 55.4219 41.1381C55.9137 40.4005 55.3605 40.4005 52.963 41.2611ZM37.1642 60.3795C37.2871 60.9942 36.9798 61.4246 36.4265 61.4246C35.32 61.4246 34.6437 60.441 35.1355 59.5189C35.6888 58.6582 36.9183 59.15 37.1642 60.3795ZM44.0493 66.5269C46.6312 70.7686 44.7255 76.4242 41.2829 74.8259C39.4387 74.0267 37.2871 70.7686 37.2871 68.8629C37.2871 67.572 37.3486 67.572 38.824 68.5555C40.5452 69.6621 40.7297 69.4162 39.6231 67.5105C39.0084 66.4654 39.0084 66.0966 39.6231 65.9122C40.9141 65.4204 40.4223 63.945 38.824 63.5147C37.9633 63.3302 37.4716 62.8999 37.656 62.5926C38.2092 61.6705 42.8198 64.4368 44.0493 66.5269ZM36.365 63.2073C36.5494 63.5147 36.4265 63.945 36.0577 64.1909C35.7503 64.3753 35.4429 64.1294 35.4429 63.6376C35.4429 62.5311 35.8118 62.3467 36.365 63.2073ZM32.6766 66.3425C32.4307 66.7113 32.0618 67.8178 31.7545 68.8629C31.1397 71.0145 32.1233 70.7071 32.984 68.4326C33.5987 66.8343 35.2585 66.4654 35.8118 67.8178C36.3035 69.0473 34.4593 72.3054 32.6766 73.4735C30.9553 74.6415 28.9267 74.1497 28.3734 72.4899C28.0046 71.3833 29.234 68.3096 30.6479 66.4654C31.3856 65.6048 33.2298 65.4818 32.6766 66.3425Z" fill="#C5287F"/>
<path d="M49.8885 47.1011C46.9992 48.6379 42.5731 52.4493 43.3723 52.6952C44.0485 52.9411 47.2451 50.851 49.5812 48.6994C50.0729 48.2076 51.0565 47.4699 51.7327 46.9781C53.3925 45.8101 52.1631 45.8716 49.8885 47.1011Z" fill="#C5287F"/>
<path d="M41.3435 53.2486C40.9746 54.1092 41.0361 54.1707 41.6508 53.6174C42.0812 53.1871 42.2656 52.6953 42.0812 52.5109C41.8967 52.3265 41.5279 52.6338 41.3435 53.2486Z" fill="#C5287F"/>
<path d="M22.5324 70.0308C21.18 72.0595 20.1349 73.7193 20.2579 73.7193C20.3808 73.7193 22.0406 72.0595 23.9463 70.0308C26.7126 67.1415 27.2044 66.3424 26.2823 66.3424C25.4832 66.3424 24.1922 67.5719 22.5324 70.0308Z" fill="#C5287F"/>
<path d="M22.5943 79.8668C20.5042 82.2642 18.9673 84.1699 19.1517 84.1699C19.8894 84.1699 22.2254 82.6946 23.0246 81.7725C24.5614 79.8053 26.8974 76.0554 26.713 75.8095C26.5286 75.6865 24.7459 77.5308 22.5943 79.8668Z" fill="#C5287F"/>
<path d="M99.9906 80.4815C99.4988 81.4036 99.3758 83.2478 99.6832 86.1985C100.236 91.4853 101.036 90.5632 101.282 84.3543C101.527 79.5593 101.097 78.3913 99.9906 80.4815Z" fill="#C5287F"/>
<path d="M44.7243 85.5223C44.7857 89.0263 44.9702 90.1329 45.2775 89.0878C46.0152 86.8133 46.0152 80.4815 45.2775 80.4815C44.9087 80.4815 44.6628 82.5716 44.7243 85.5223Z" fill="#C5287F"/>
<path d="M21.7954 85.8298C22.2257 86.0142 22.779 85.9527 22.9634 85.7683C23.2093 85.5839 22.8405 85.3994 22.1643 85.4609C21.4881 85.4609 21.3036 85.6453 21.7954 85.8298Z" fill="#C5287F"/>
<path d="M45.1549 97.6328C44.8476 98.7393 44.7246 107.346 44.7246 116.69C44.8476 131.997 44.909 132.919 45.4008 126.28C46.0156 117.55 45.8311 94.5591 45.1549 97.6328Z" fill="#C5287F"/>
<path d="M95.7464 104.825C95.7464 105.501 95.9309 105.686 96.1153 105.194C96.2997 104.764 96.2382 104.21 96.0538 104.026C95.8694 103.78 95.685 104.149 95.7464 104.825Z" fill="#C5287F"/>
<path d="M95.7464 107.284C95.7464 107.96 95.9309 108.145 96.1153 107.653C96.2997 107.223 96.2382 106.669 96.0538 106.485C95.8694 106.239 95.685 106.608 95.7464 107.284Z" fill="#C5287F"/>
<path d="M55.2373 134.21C53.0242 135.378 51.4259 138.267 51.4259 141.033C51.4259 143.923 52.5939 145.89 55.1758 147.242C57.02 148.164 57.2659 149.332 55.7291 149.824C55.1758 150.009 55.0529 149.763 55.3602 149.025C55.6676 148.164 55.4832 148.041 54.3766 148.349C53.5775 148.533 52.2251 148.718 51.3029 148.718C50.3194 148.718 49.5817 149.025 49.5817 149.394C49.5817 149.886 50.4423 150.009 52.0406 149.763C53.3931 149.578 54.4996 149.701 54.4996 150.009C54.4996 150.992 54.1922 151.484 53.7004 151.3C53.4545 151.238 52.0406 151.484 50.5038 151.853C45.1556 153.205 41.1597 150.254 44.1105 147.119C45.7088 145.398 47.9834 145.214 51.1185 146.505C53.1472 147.365 53.2086 147.365 52.5324 146.259C51.8562 145.152 48.4137 144.046 46.508 144.353C44.6023 144.599 42.881 145.89 42.2048 147.55C40.7909 150.808 42.8195 153.021 47.2457 153.021H49.0899L47.4916 154.865C46.1391 156.463 46.0162 156.955 46.6309 158.246C47.4916 160.152 49.2128 160.705 51.3644 159.783C52.9627 159.168 54.9299 156.34 54.2537 155.664C54.1307 155.541 53.8234 155.972 53.5775 156.648C52.7783 159.291 47.7375 159.967 47.7375 157.447C47.7375 155.972 48.3522 155.172 50.8112 153.697C53.516 152.099 54.4996 152.037 52.5939 153.636C51.3644 154.619 51.3029 154.804 52.1636 154.865C52.7168 154.865 53.3931 154.558 53.5775 154.189C54.0078 153.513 55.852 155.541 55.6676 156.525C55.2988 158.738 58.1266 161.627 60.7085 161.627C64.2125 161.627 65.1346 157.631 62.7371 152.898C62.2453 151.976 61.8765 150.992 61.9379 150.808C61.9994 150.316 60.5855 149.332 59.7249 149.332C59.356 149.332 59.4175 149.578 59.7864 149.824C61.2617 150.746 63.1059 154.619 63.1059 156.771C63.1059 159.23 62.2453 160.398 60.3396 160.398C58.3725 160.398 57.143 158.676 56.6512 155.172L56.2209 152.099L57.5118 153.636L58.8028 155.172L58.4339 153.328C58.2495 152.283 58.0036 151.115 57.8192 150.685C57.6962 150.254 58.4339 149.086 59.4175 148.103C60.647 146.873 60.9544 146.259 60.4011 146.259C59.9093 146.259 59.2946 146.505 59.1101 146.873C58.8642 147.242 58.188 147.119 57.3274 146.566C56.5897 146.074 55.7905 145.767 55.6061 145.951C55.0529 146.505 52.7783 143.492 52.6554 141.956C52.4095 139.005 52.6554 138.144 54.4381 136.361C57.5733 133.226 61.2003 134.579 61.3232 138.943C61.3232 140.788 61.3847 140.91 61.8765 139.62C62.5527 138.021 62.1224 136.607 60.4626 134.702C59.0487 133.165 57.3274 132.98 55.2373 134.21Z" fill="#C5287F"/>
<path d="M55.7302 140.05C54.9311 141.586 54.9311 145.828 55.7302 145.336C56.0991 145.152 56.345 143.923 56.345 142.632C56.345 141.402 56.6523 140.05 57.0827 139.619C57.6359 139.066 57.6359 138.882 57.0827 138.882C56.7138 138.882 56.0991 139.435 55.7302 140.05Z" fill="#C5287F"/>
<path d="M59.234 143.185C56.7751 145.459 57.2054 145.705 60.6479 143.861C64.2749 141.955 65.5658 142.386 66.3035 145.951C66.9183 148.718 66.1191 149.886 63.7831 150.008C62.3692 150.131 62.3692 150.131 63.5372 150.377C66.0576 150.869 67.4101 149.578 67.4101 146.627C67.4101 141.648 62.861 139.742 59.234 143.185Z" fill="#C5287F"/>
<path d="M43.8019 160.459C43.3716 162.857 43.4331 177.61 43.9863 183.45L44.3552 187.754L44.847 181.975C45.4617 174.045 45.4003 159.291 44.724 158.922C44.4167 158.738 44.0478 159.414 43.8019 160.459Z" fill="#C5287F"/>
<path d="M61.8754 183.819C61.1377 185.233 60.6459 186.463 60.7688 186.586C60.9533 186.708 61.6295 185.54 62.3672 184.065C64.0269 180.623 63.5966 180.377 61.8754 183.819Z" fill="#C5287F"/>
<path d="M27.4512 185.541C27.4512 185.909 27.6971 186.34 28.0659 186.524C28.4348 186.709 28.4962 186.463 28.3118 185.971C27.8815 184.864 27.4512 184.68 27.4512 185.541Z" fill="#C5287F"/>
<path d="M29.1076 188.676C29.2921 189.352 29.6609 190.028 29.9068 190.212C30.2142 190.397 30.2756 189.967 30.0912 189.29C29.9068 188.614 29.538 187.938 29.2921 187.753C28.9847 187.569 28.9232 187.999 29.1076 188.676Z" fill="#C5287F"/>
<path d="M43.4945 190.274C43.4945 190.95 43.6789 191.135 43.8633 190.643C44.0477 190.212 43.9863 189.659 43.8018 189.475C43.6174 189.229 43.433 189.598 43.4945 190.274Z" fill="#C5287F"/>
<path d="M58.5564 190.335C58.1875 191.196 58.249 191.258 58.8637 190.704C59.294 190.274 59.4785 189.782 59.294 189.598C59.1096 189.413 58.7408 189.721 58.5564 190.335Z" fill="#C5287F"/>
<path d="M113.821 191.319C111.792 191.688 108.411 191.995 106.321 191.995C103.063 192.057 102.571 192.18 103.309 192.856C104.538 194.147 107.735 194.208 113.206 193.163C119.415 191.995 130.48 192.364 134.046 193.901C135.337 194.454 136.505 194.762 136.689 194.639C137.12 194.147 130.603 191.934 126.73 191.196C122.489 190.397 118.862 190.458 113.821 191.319Z" fill="#C5287F"/>
<path d="M88.3709 193.225C86.0349 194.024 85.1128 195.438 86.8341 195.438C87.3873 195.438 89.7234 194.885 91.9364 194.27C94.1495 193.594 96.6699 192.917 97.5305 192.794C98.3912 192.672 97.1617 192.487 94.7642 192.487C92.4282 192.487 89.5389 192.794 88.3709 193.225Z" fill="#C5287F"/>
<path d="M44.3564 198.327C42.6966 198.819 37.8402 200.233 33.5985 201.524C20.3201 205.581 14.9719 206.442 6.85733 205.765C3.47626 205.52 0.464033 205.397 0.0951896 205.52C-1.01134 205.888 7.84091 208.347 10.4843 208.347C16.1399 208.347 32.5534 204.352 41.0983 200.909C44.6638 199.434 48.1678 198.634 53.1472 198.143C55.8521 197.897 56.8357 198.081 58.6799 199.249C59.9094 199.987 61.1388 200.909 61.3847 201.216C61.6306 201.585 61.9995 201.647 62.2454 201.462C62.4298 201.216 61.2618 200.171 59.6635 199.126C56.8971 197.405 56.2209 197.282 52.0407 197.344C49.5203 197.405 46.0777 197.897 44.3564 198.327Z" fill="#C5287F"/>
<path d="M99.0661 199.126C97.7137 199.434 93.7179 200.663 90.2139 201.893C85.0501 203.737 82.8985 204.167 79.1486 204.229H74.4766L76.6282 205.151C79.9477 206.565 84.3124 206.196 90.1524 204.044C101.033 199.925 106.689 199.372 114.435 201.647C124.393 204.536 132.692 205.212 141.791 203.737C146.278 203.061 146.094 202.999 135.951 203.061C125.746 203.122 125.316 203.061 119.23 201.093C112.406 198.942 103.738 198.081 99.0661 199.126Z" fill="#C5287F"/>
<path d="M147.202 202.63C147.632 202.815 148.185 202.753 148.37 202.569C148.616 202.384 148.247 202.2 147.571 202.261C146.894 202.261 146.71 202.446 147.202 202.63Z" fill="#C5287F"/>
<path d="M36.7941 207.118C34.3351 207.733 31.8762 208.593 31.2614 208.901C30.2778 209.515 30.2778 209.515 31.3229 209.638C31.8762 209.7 32.7368 209.761 33.1671 209.823C33.536 209.884 35.3187 209.577 36.9785 209.085C40.6669 207.978 46.8143 207.917 48.0438 208.962C49.0889 209.823 59.5395 212.036 62.7976 212.036C66.1786 211.974 64.3344 211.052 60.0312 210.622C58.187 210.437 54.4371 209.392 51.7323 208.347C45.4004 205.827 42.3882 205.581 36.7941 207.118Z" fill="#C5287F"/>
</svg>
